<?xml version="1.0" encoding="utf-8" standalone="no"?>
<!DOCTYPE svg PUBLIC "-//W3C//DTD SVG 1.1//EN"
  "http://www.w3.org/Graphics/SVG/1.1/DTD/svg11.dtd">
<!-- Created with matplotlib (https://matplotlib.org/) -->
<svg height="291.6pt" version="1.1" viewBox="0 0 873.72 291.6" width="873.72pt" xmlns="http://www.w3.org/2000/svg" xmlns:xlink="http://www.w3.org/1999/xlink">
 <metadata>
  <rdf:RDF xmlns:cc="http://creativecommons.org/ns#" xmlns:dc="http://purl.org/dc/elements/1.1/" xmlns:rdf="http://www.w3.org/1999/02/22-rdf-syntax-ns#">
   <cc:Work>
    <dc:type rdf:resource="http://purl.org/dc/dcmitype/StillImage"/>
    <dc:date>2022-04-22T01:35:01.613587</dc:date>
    <dc:format>image/svg+xml</dc:format>
    <dc:creator>
     <cc:Agent>
      <dc:title>Matplotlib v3.3.4, https://matplotlib.org/</dc:title>
     </cc:Agent>
    </dc:creator>
   </cc:Work>
  </rdf:RDF>
 </metadata>
 <defs>
  <style type="text/css">*{stroke-linecap:butt;stroke-linejoin:round;}</style>
 </defs>
 <g id="figure_1">
  <g id="patch_1">
   <path d="M 0 291.6 
L 873.72 291.6 
L 873.72 0 
L 0 0 
z
" style="fill:#ffffff;"/>
  </g>
  <g id="axes_1">
   <g id="PolyCollection_1">
    <path clip-path="url(#p0d4a2bb3d9)" d="M -587.713846 278.003077 
L -574.493538 278.003077 
L -561.273231 278.003077 
L -548.052923 278.003077 
L -534.832615 278.003077 
L -521.612308 278.003077 
L -508.392 278.003077 
L -495.171692 278.003077 
L -481.951385 278.003077 
L -468.731077 278.003077 
L -455.510769 278.003077 
L -442.290462 278.003077 
L -429.070154 278.003077 
L -415.849846 278.003077 
L -402.629538 278.003077 
L -389.409231 278.003077 
L -376.188923 278.003077 
L -362.968615 278.003077 
L -349.748308 278.003077 
L -336.528 278.003077 
L -323.307692 278.003077 
L -310.087385 278.003077 
L -296.867077 278.003077 
L -283.646769 278.003077 
L -270.426462 278.003077 
L -257.206154 278.003077 
L -243.985846 278.003077 
L -230.765538 278.003077 
L -217.545231 278.003077 
L -204.324923 278.003077 
L -191.104615 278.003077 
L -177.884308 278.003077 
L -164.664 278.003077 
L -151.443692 278.003077 
L -138.223385 278.003077 
L -125.003077 278.003077 
L -111.782769 278.003077 
L -98.562462 278.003077 
L -85.342154 278.003077 
L -72.121846 278.003077 
L -58.901538 278.003077 
L -45.681231 278.003077 
L -32.460923 278.003077 
L -19.240615 278.003077 
L -6.020308 278.003077 
L 7.2 278.003077 
L 20.420308 278.003077 
L 33.640615 278.003077 
L 46.860923 278.003077 
L 60.081231 278.003077 
L 73.301538 278.003077 
L 86.521846 278.003077 
L 99.742154 278.003077 
L 112.962462 278.003077 
L 126.182769 278.003077 
L 139.403077 278.003077 
L 152.623385 278.003077 
L 165.843692 278.003077 
L 179.064 278.003077 
L 192.284308 278.003077 
L 205.504615 278.003077 
L 218.724923 278.003077 
L 231.945231 278.003077 
L 245.165538 278.003077 
L 258.385846 278.003077 
L 271.606154 278.003077 
L 284.826462 278.003077 
L 298.046769 278.003077 
L 311.267077 278.003077 
L 324.487385 278.003077 
L 337.707692 278.003077 
L 350.928 278.003077 
L 364.148308 278.003077 
L 377.368615 278.003077 
L 390.588923 278.003077 
L 403.809231 278.003077 
L 417.029538 278.003077 
L 430.249846 278.003077 
L 443.470154 278.003077 
L 456.690462 278.003077 
L 469.910769 278.003077 
L 483.131077 278.003077 
L 496.351385 278.003077 
L 509.571692 278.003077 
L 522.792 278.003077 
L 536.012308 278.003077 
L 549.232615 278.003077 
L 562.452923 278.003077 
L 575.673231 278.003077 
L 588.893538 278.003077 
L 602.113846 278.003077 
L 615.334154 278.003077 
L 628.554462 278.003077 
L 641.774769 278.003077 
L 654.995077 278.003077 
L 668.215385 278.003077 
L 681.435692 278.003077 
L 694.656 278.003077 
L 707.876308 278.003077 
L 721.096615 278.003077 
L 734.316923 278.003077 
L 747.537231 278.003077 
L 760.757538 278.003077 
L 773.977846 278.003077 
L 787.198154 278.003077 
L 800.418462 278.003077 
L 813.638769 278.003077 
L 826.859077 278.003077 
L 840.079385 278.003077 
L 853.299692 278.003077 
L 866.52 278.003077 
L 879.740308 278.003077 
L 892.960615 278.003077 
L 906.180923 278.003077 
L 919.401231 278.003077 
L 932.621538 278.003077 
L 945.841846 278.003077 
L 959.062154 278.003077 
L 972.282462 278.003077 
L 985.502769 278.003077 
L 998.723077 278.003077 
L 1011.943385 278.003077 
L 1025.163692 278.003077 
L 1038.384 278.003077 
L 1051.604308 278.003077 
L 1064.824615 278.003077 
L 1078.044923 278.003077 
L 1091.265231 278.003077 
L 1104.485538 278.003077 
L 1117.705846 278.003077 
L 1130.926154 278.003077 
L 1144.146462 278.003077 
L 1157.366769 278.003077 
L 1170.587077 278.003077 
L 1183.807385 278.003077 
L 1197.027692 278.003077 
L 1210.248 278.003077 
L 1223.468308 278.003077 
L 1236.688615 278.003077 
L 1249.908923 278.003077 
L 1263.129231 278.003077 
L 1276.349538 278.003077 
L 1289.569846 278.003077 
L 1302.790154 278.003077 
L 1316.010462 278.003077 
L 1329.230769 278.003077 
L 1342.451077 278.003077 
L 1355.671385 278.003077 
L 1368.891692 278.003077 
L 1382.112 278.003077 
L 1395.332308 278.003077 
L 1408.552615 278.003077 
L 1421.772923 278.003077 
L 1434.993231 278.003077 
L 1448.213538 278.003077 
L 1461.433846 278.003077 
L 1474.654154 278.003077 
L 1487.874462 278.003077 
L 1501.094769 278.003077 
L 1514.315077 278.003077 
L 1527.535385 278.003077 
L 1540.755692 278.003077 
L 1553.976 278.003077 
L 1567.196308 278.003077 
L 1580.416615 278.003077 
L 1593.636923 278.003077 
L 1606.857231 278.003077 
L 1620.077538 278.003077 
L 1633.297846 278.003077 
L 1646.518154 278.003077 
L 1659.738462 278.003077 
L 1672.958769 278.003077 
L 1686.179077 278.003077 
L 1699.399385 278.003077 
L 1712.619692 278.003077 
L 1725.84 278.003077 
L 1739.060308 278.003077 
L 1752.280615 278.003077 
L 1765.500923 278.003077 
L 1778.721231 278.003077 
L 1791.941538 278.003077 
L 1805.161846 278.003077 
L 1818.382154 278.003077 
L 1831.602462 278.003077 
L 1844.822769 278.003077 
L 1858.043077 278.003077 
L 1871.263385 278.003077 
L 1884.483692 278.003077 
L 1897.704 278.003077 
L 1910.924308 278.003077 
L 1924.144615 278.003077 
L 1937.364923 278.003077 
L 1950.585231 278.003077 
L 1963.805538 278.003077 
L 1977.025846 278.003077 
L 1990.246154 278.003077 
L 2003.466462 278.003077 
L 2016.686769 278.003077 
L 2029.907077 278.003077 
L 2043.127385 278.003077 
L 2056.347692 278.003077 
L 2069.568 278.003077 
L 2082.788308 278.003077 
L 2096.008615 278.003077 
L 2109.228923 278.003077 
L 2122.449231 278.003077 
L 2135.669538 278.003077 
L 2148.889846 278.003077 
L 2162.110154 278.003077 
L 2175.330462 278.003077 
L 2175.330462 145.8 
L 2162.110154 145.8 
L 2148.889846 145.8 
L 2135.669538 145.8 
L 2122.449231 145.8 
L 2109.228923 145.8 
L 2096.008615 145.8 
L 2082.788308 145.8 
L 2069.568 145.8 
L 2056.347692 145.8 
L 2043.127385 145.8 
L 2029.907077 145.8 
L 2016.686769 145.8 
L 2003.466462 145.8 
L 1990.246154 145.8 
L 1977.025846 145.8 
L 1963.805538 145.8 
L 1950.585231 145.8 
L 1937.364923 145.8 
L 1924.144615 145.8 
L 1910.924308 145.8 
L 1897.704 145.8 
L 1884.483692 145.8 
L 1871.263385 145.8 
L 1858.043077 145.8 
L 1844.822769 145.8 
L 1831.602462 145.8 
L 1818.382154 145.8 
L 1805.161846 145.8 
L 1791.941538 145.8 
L 1778.721231 145.8 
L 1765.500923 145.8 
L 1752.280615 145.8 
L 1739.060308 145.8 
L 1725.84 145.8 
L 1712.619692 145.8 
L 1699.399385 145.8 
L 1686.179077 145.8 
L 1672.958769 145.8 
L 1659.738462 145.8 
L 1646.518154 145.8 
L 1633.297846 145.8 
L 1620.077538 145.8 
L 1606.857231 145.8 
L 1593.636923 145.8 
L 1580.416615 145.8 
L 1567.196308 145.8 
L 1553.976 145.8 
L 1540.755692 145.8 
L 1527.535385 145.8 
L 1514.315077 145.8 
L 1501.094769 145.8 
L 1487.874462 145.8 
L 1474.654154 145.8 
L 1461.433846 145.8 
L 1448.213538 145.8 
L 1434.993231 145.8 
L 1421.772923 145.8 
L 1408.552615 145.8 
L 1395.332308 145.8 
L 1382.112 145.8 
L 1368.891692 145.8 
L 1355.671385 145.8 
L 1342.451077 145.8 
L 1329.230769 145.8 
L 1316.010462 145.8 
L 1302.790154 145.8 
L 1289.569846 145.8 
L 1276.349538 145.8 
L 1263.129231 145.8 
L 1249.908923 145.8 
L 1236.688615 145.8 
L 1223.468308 145.8 
L 1210.248 145.8 
L 1197.027692 145.8 
L 1183.807385 145.8 
L 1170.587077 145.8 
L 1157.366769 145.8 
L 1144.146462 145.8 
L 1130.926154 145.8 
L 1117.705846 145.8 
L 1104.485538 145.8 
L 1091.265231 145.8 
L 1078.044923 145.8 
L 1064.824615 145.8 
L 1051.604308 145.8 
L 1038.384 145.8 
L 1025.163692 145.8 
L 1011.943385 145.8 
L 998.723077 145.8 
L 985.502769 145.8 
L 972.282462 145.8 
L 959.062154 145.8 
L 945.841846 145.8 
L 932.621538 145.8 
L 919.401231 145.8 
L 906.180923 145.8 
L 892.960615 145.8 
L 879.740308 145.8 
L 866.52 145.8 
L 853.299692 145.8 
L 840.079385 145.8 
L 826.859077 145.8 
L 813.638769 145.8 
L 800.418462 145.8 
L 787.198154 145.8 
L 773.977846 145.8 
L 760.757538 145.8 
L 747.537231 145.8 
L 734.316923 145.8 
L 721.096615 145.8 
L 707.876308 145.8 
L 694.656 145.8 
L 681.435692 145.8 
L 668.215385 145.8 
L 654.995077 145.8 
L 641.774769 145.8 
L 628.554462 145.8 
L 615.334154 145.8 
L 602.113846 145.8 
L 588.893538 145.8 
L 575.673231 145.8 
L 562.452923 145.8 
L 549.232615 145.8 
L 536.012308 145.8 
L 522.792 145.8 
L 509.571692 145.8 
L 496.351385 145.8 
L 483.131077 145.8 
L 469.910769 145.8 
L 456.690462 145.8 
L 443.470154 145.8 
L 430.249846 145.8 
L 417.029538 145.8 
L 403.809231 145.8 
L 390.588923 145.8 
L 377.368615 145.8 
L 364.148308 145.8 
L 350.928 145.8 
L 337.707692 145.8 
L 324.487385 145.8 
L 311.267077 145.8 
L 298.046769 145.8 
L 284.826462 145.8 
L 271.606154 145.8 
L 258.385846 145.8 
L 245.165538 145.8 
L 231.945231 145.8 
L 218.724923 145.8 
L 205.504615 145.8 
L 192.284308 145.8 
L 179.064 145.8 
L 165.843692 145.8 
L 152.623385 145.8 
L 139.403077 145.8 
L 126.182769 145.8 
L 112.962462 145.8 
L 99.742154 145.8 
L 86.521846 145.8 
L 73.301538 145.8 
L 60.081231 145.8 
L 46.860923 145.8 
L 33.640615 145.8 
L 20.420308 145.8 
L 7.2 145.8 
L -6.020308 145.8 
L -19.240615 145.8 
L -32.460923 145.8 
L -45.681231 145.8 
L -58.901538 145.8 
L -72.121846 145.8 
L -85.342154 145.8 
L -98.562462 145.8 
L -111.782769 145.8 
L -125.003077 145.8 
L -138.223385 145.8 
L -151.443692 145.8 
L -164.664 145.8 
L -177.884308 145.8 
L -191.104615 145.8 
L -204.324923 145.8 
L -217.545231 145.8 
L -230.765538 145.8 
L -243.985846 145.8 
L -257.206154 145.8 
L -270.426462 145.8 
L -283.646769 145.8 
L -296.867077 145.8 
L -310.087385 145.8 
L -323.307692 145.8 
L -336.528 145.8 
L -349.748308 145.8 
L -362.968615 145.8 
L -376.188923 145.8 
L -389.409231 145.8 
L -402.629538 145.8 
L -415.849846 145.8 
L -429.070154 145.8 
L -442.290462 145.8 
L -455.510769 145.8 
L -468.731077 145.8 
L -481.951385 145.8 
L -495.171692 145.8 
L -508.392 145.8 
L -521.612308 145.8 
L -534.832615 145.8 
L -548.052923 145.8 
L -561.273231 145.8 
L -574.493538 145.8 
L -587.713846 145.8 
z
" style="fill:#c7c7c7;"/>
    <path clip-path="url(#p0d4a2bb3d9)" d="M -587.713846 145.8 
L -574.493538 145.8 
L -561.273231 145.8 
L -548.052923 145.8 
L -534.832615 145.8 
L -521.612308 145.8 
L -508.392 145.8 
L -495.171692 145.8 
L -481.951385 145.8 
L -468.731077 145.8 
L -455.510769 145.8 
L -442.290462 145.8 
L -429.070154 145.8 
L -415.849846 145.8 
L -402.629538 145.8 
L -389.409231 145.8 
L -376.188923 145.8 
L -362.968615 145.8 
L -349.748308 145.8 
L -336.528 145.8 
L -323.307692 145.8 
L -310.087385 145.8 
L -296.867077 145.8 
L -283.646769 145.8 
L -270.426462 145.8 
L -257.206154 145.8 
L -243.985846 145.8 
L -230.765538 145.8 
L -217.545231 145.8 
L -204.324923 145.8 
L -191.104615 145.8 
L -177.884308 145.8 
L -164.664 145.8 
L -151.443692 145.8 
L -138.223385 145.8 
L -125.003077 145.8 
L -111.782769 145.8 
L -98.562462 145.8 
L -85.342154 145.8 
L -72.121846 145.8 
L -58.901538 145.8 
L -45.681231 145.8 
L -32.460923 145.8 
L -19.240615 145.8 
L -6.020308 145.8 
L 7.2 145.8 
L 20.420308 145.8 
L 33.640615 145.8 
L 46.860923 145.8 
L 60.081231 145.8 
L 73.301538 145.8 
L 86.521846 145.8 
L 99.742154 145.8 
L 112.962462 145.8 
L 126.182769 145.8 
L 139.403077 145.8 
L 152.623385 145.8 
L 165.843692 145.8 
L 179.064 145.8 
L 192.284308 145.8 
L 205.504615 145.8 
L 218.724923 145.8 
L 231.945231 145.8 
L 245.165538 145.8 
L 258.385846 145.8 
L 271.606154 145.8 
L 284.826462 145.8 
L 298.046769 145.8 
L 311.267077 145.8 
L 324.487385 145.8 
L 337.707692 145.8 
L 350.928 145.8 
L 364.148308 145.8 
L 377.368615 145.8 
L 390.588923 145.8 
L 403.809231 145.8 
L 417.029538 145.8 
L 430.249846 145.8 
L 443.470154 145.8 
L 456.690462 145.8 
L 469.910769 145.8 
L 483.131077 145.8 
L 496.351385 145.8 
L 509.571692 145.8 
L 522.792 145.8 
L 536.012308 145.8 
L 549.232615 145.8 
L 562.452923 145.8 
L 575.673231 145.8 
L 588.893538 145.8 
L 602.113846 145.8 
L 615.334154 145.8 
L 628.554462 145.8 
L 641.774769 145.8 
L 654.995077 145.8 
L 668.215385 145.8 
L 681.435692 145.8 
L 694.656 145.8 
L 707.876308 145.8 
L 721.096615 145.8 
L 734.316923 145.8 
L 747.537231 145.8 
L 760.757538 145.8 
L 773.977846 145.8 
L 787.198154 145.8 
L 800.418462 145.8 
L 813.638769 145.8 
L 826.859077 145.8 
L 840.079385 145.8 
L 853.299692 145.8 
L 866.52 145.8 
L 879.740308 145.8 
L 892.960615 145.8 
L 906.180923 145.8 
L 919.401231 145.8 
L 932.621538 145.8 
L 945.841846 145.8 
L 959.062154 145.8 
L 972.282462 145.8 
L 985.502769 145.8 
L 998.723077 145.8 
L 1011.943385 145.8 
L 1025.163692 145.8 
L 1038.384 145.8 
L 1051.604308 145.8 
L 1064.824615 145.8 
L 1078.044923 145.8 
L 1091.265231 145.8 
L 1104.485538 145.8 
L 1117.705846 145.8 
L 1130.926154 145.8 
L 1144.146462 145.8 
L 1157.366769 145.8 
L 1170.587077 145.8 
L 1183.807385 145.8 
L 1197.027692 145.8 
L 1210.248 145.8 
L 1223.468308 145.8 
L 1236.688615 145.8 
L 1249.908923 145.8 
L 1263.129231 145.8 
L 1276.349538 145.8 
L 1289.569846 145.8 
L 1302.790154 145.8 
L 1316.010462 145.8 
L 1329.230769 145.8 
L 1342.451077 145.8 
L 1355.671385 145.8 
L 1368.891692 145.8 
L 1382.112 145.8 
L 1395.332308 145.8 
L 1408.552615 145.8 
L 1421.772923 145.8 
L 1434.993231 145.8 
L 1448.213538 145.8 
L 1461.433846 145.8 
L 1474.654154 145.8 
L 1487.874462 145.8 
L 1501.094769 145.8 
L 1514.315077 145.8 
L 1527.535385 145.8 
L 1540.755692 145.8 
L 1553.976 145.8 
L 1567.196308 145.8 
L 1580.416615 145.8 
L 1593.636923 145.8 
L 1606.857231 145.8 
L 1620.077538 145.8 
L 1633.297846 145.8 
L 1646.518154 145.8 
L 1659.738462 145.8 
L 1672.958769 145.8 
L 1686.179077 145.8 
L 1699.399385 145.8 
L 1712.619692 145.8 
L 1725.84 145.8 
L 1739.060308 145.8 
L 1752.280615 145.8 
L 1765.500923 145.8 
L 1778.721231 145.8 
L 1791.941538 145.8 
L 1805.161846 145.8 
L 1818.382154 145.8 
L 1831.602462 145.8 
L 1844.822769 145.8 
L 1858.043077 145.8 
L 1871.263385 145.8 
L 1884.483692 145.8 
L 1897.704 145.8 
L 1910.924308 145.8 
L 1924.144615 145.8 
L 1937.364923 145.8 
L 1950.585231 145.8 
L 1963.805538 145.8 
L 1977.025846 145.8 
L 1990.246154 145.8 
L 2003.466462 145.8 
L 2016.686769 145.8 
L 2029.907077 145.8 
L 2043.127385 145.8 
L 2056.347692 145.8 
L 2069.568 145.8 
L 2082.788308 145.8 
L 2096.008615 145.8 
L 2109.228923 145.8 
L 2122.449231 145.8 
L 2135.669538 145.8 
L 2148.889846 145.8 
L 2162.110154 145.8 
L 2175.330462 145.8 
L 2175.330462 13.596923 
L 2162.110154 13.596923 
L 2148.889846 13.596923 
L 2135.669538 13.596923 
L 2122.449231 13.596923 
L 2109.228923 13.596923 
L 2096.008615 13.596923 
L 2082.788308 13.596923 
L 2069.568 13.596923 
L 2056.347692 13.596923 
L 2043.127385 13.596923 
L 2029.907077 13.596923 
L 2016.686769 13.596923 
L 2003.466462 13.596923 
L 1990.246154 13.596923 
L 1977.025846 13.596923 
L 1963.805538 13.596923 
L 1950.585231 13.596923 
L 1937.364923 13.596923 
L 1924.144615 13.596923 
L 1910.924308 13.596923 
L 1897.704 13.596923 
L 1884.483692 13.596923 
L 1871.263385 13.596923 
L 1858.043077 13.596923 
L 1844.822769 13.596923 
L 1831.602462 13.596923 
L 1818.382154 13.596923 
L 1805.161846 13.596923 
L 1791.941538 13.596923 
L 1778.721231 13.596923 
L 1765.500923 13.596923 
L 1752.280615 13.596923 
L 1739.060308 13.596923 
L 1725.84 13.596923 
L 1712.619692 13.596923 
L 1699.399385 13.596923 
L 1686.179077 13.596923 
L 1672.958769 13.596923 
L 1659.738462 13.596923 
L 1646.518154 13.596923 
L 1633.297846 13.596923 
L 1620.077538 13.596923 
L 1606.857231 13.596923 
L 1593.636923 13.596923 
L 1580.416615 13.596923 
L 1567.196308 13.596923 
L 1553.976 13.596923 
L 1540.755692 13.596923 
L 1527.535385 13.596923 
L 1514.315077 13.596923 
L 1501.094769 13.596923 
L 1487.874462 13.596923 
L 1474.654154 13.596923 
L 1461.433846 13.596923 
L 1448.213538 13.596923 
L 1434.993231 13.596923 
L 1421.772923 13.596923 
L 1408.552615 13.596923 
L 1395.332308 13.596923 
L 1382.112 13.596923 
L 1368.891692 13.596923 
L 1355.671385 13.596923 
L 1342.451077 13.596923 
L 1329.230769 13.596923 
L 1316.010462 13.596923 
L 1302.790154 13.596923 
L 1289.569846 13.596923 
L 1276.349538 13.596923 
L 1263.129231 13.596923 
L 1249.908923 13.596923 
L 1236.688615 13.596923 
L 1223.468308 13.596923 
L 1210.248 13.596923 
L 1197.027692 13.596923 
L 1183.807385 13.596923 
L 1170.587077 13.596923 
L 1157.366769 13.596923 
L 1144.146462 13.596923 
L 1130.926154 13.596923 
L 1117.705846 13.596923 
L 1104.485538 13.596923 
L 1091.265231 13.596923 
L 1078.044923 13.596923 
L 1064.824615 13.596923 
L 1051.604308 13.596923 
L 1038.384 13.596923 
L 1025.163692 13.596923 
L 1011.943385 13.596923 
L 998.723077 13.596923 
L 985.502769 13.596923 
L 972.282462 13.596923 
L 959.062154 13.596923 
L 945.841846 13.596923 
L 932.621538 13.596923 
L 919.401231 13.596923 
L 906.180923 13.596923 
L 892.960615 13.596923 
L 879.740308 13.596923 
L 866.52 13.596923 
L 853.299692 13.596923 
L 840.079385 13.596923 
L 826.859077 13.596923 
L 813.638769 13.596923 
L 800.418462 13.596923 
L 787.198154 13.596923 
L 773.977846 13.596923 
L 760.757538 13.596923 
L 747.537231 13.596923 
L 734.316923 13.596923 
L 721.096615 13.596923 
L 707.876308 13.596923 
L 694.656 13.596923 
L 681.435692 13.596923 
L 668.215385 13.596923 
L 654.995077 13.596923 
L 641.774769 13.596923 
L 628.554462 13.596923 
L 615.334154 13.596923 
L 602.113846 13.596923 
L 588.893538 13.596923 
L 575.673231 13.596923 
L 562.452923 13.596923 
L 549.232615 13.596923 
L 536.012308 13.596923 
L 522.792 13.596923 
L 509.571692 13.596923 
L 496.351385 13.596923 
L 483.131077 13.596923 
L 469.910769 13.596923 
L 456.690462 13.596923 
L 443.470154 13.596923 
L 430.249846 13.596923 
L 417.029538 13.596923 
L 403.809231 13.596923 
L 390.588923 13.596923 
L 377.368615 13.596923 
L 364.148308 13.596923 
L 350.928 13.596923 
L 337.707692 13.596923 
L 324.487385 13.596923 
L 311.267077 13.596923 
L 298.046769 13.596923 
L 284.826462 13.596923 
L 271.606154 13.596923 
L 258.385846 13.596923 
L 245.165538 13.596923 
L 231.945231 13.596923 
L 218.724923 13.596923 
L 205.504615 13.596923 
L 192.284308 13.596923 
L 179.064 13.596923 
L 165.843692 13.596923 
L 152.623385 13.596923 
L 139.403077 13.596923 
L 126.182769 13.596923 
L 112.962462 13.596923 
L 99.742154 13.596923 
L 86.521846 13.596923 
L 73.301538 13.596923 
L 60.081231 13.596923 
L 46.860923 13.596923 
L 33.640615 13.596923 
L 20.420308 13.596923 
L 7.2 13.596923 
L -6.020308 13.596923 
L -19.240615 13.596923 
L -32.460923 13.596923 
L -45.681231 13.596923 
L -58.901538 13.596923 
L -72.121846 13.596923 
L -85.342154 13.596923 
L -98.562462 13.596923 
L -111.782769 13.596923 
L -125.003077 13.596923 
L -138.223385 13.596923 
L -151.443692 13.596923 
L -164.664 13.596923 
L -177.884308 13.596923 
L -191.104615 13.596923 
L -204.324923 13.596923 
L -217.545231 13.596923 
L -230.765538 13.596923 
L -243.985846 13.596923 
L -257.206154 13.596923 
L -270.426462 13.596923 
L -283.646769 13.596923 
L -296.867077 13.596923 
L -310.087385 13.596923 
L -323.307692 13.596923 
L -336.528 13.596923 
L -349.748308 13.596923 
L -362.968615 13.596923 
L -376.188923 13.596923 
L -389.409231 13.596923 
L -402.629538 13.596923 
L -415.849846 13.596923 
L -429.070154 13.596923 
L -442.290462 13.596923 
L -455.510769 13.596923 
L -468.731077 13.596923 
L -481.951385 13.596923 
L -495.171692 13.596923 
L -508.392 13.596923 
L -521.612308 13.596923 
L -534.832615 13.596923 
L -548.052923 13.596923 
L -561.273231 13.596923 
L -574.493538 13.596923 
L -587.713846 13.596923 
z
" style="fill:#c7c7c7;"/>
   </g>
   <g id="PathCollection_1"/>
   <g id="PathCollection_2">
    <path clip-path="url(#p0d4a2bb3d9)" d="M -587.713846 221.816769 
L -567.883385 211.901538 
L -587.713846 201.986308 
z
" style="fill:#dddddd;stroke:#dddddd;stroke-width:0.5;"/>
    <path clip-path="url(#p0d4a2bb3d9)" d="M -587.713846 89.613692 
L -567.883385 79.698462 
L -587.713846 69.783231 
z
" style="fill:#dddddd;stroke:#dddddd;stroke-width:0.5;"/>
   </g>
   <g id="PathCollection_3">
    <path clip-path="url(#p0d4a2bb3d9)" d="M -1 278.003077 
L 874.72 278.003077 
L 874.72 278.003077 
" style="fill:none;stroke:#555555;stroke-width:0.5;"/>
    <path clip-path="url(#p0d4a2bb3d9)" d="M -1 145.8 
L 874.72 145.8 
L 874.72 145.8 
" style="fill:none;stroke:#555555;stroke-width:0.5;"/>
   </g>
   <g id="PathCollection_4">
    <path clip-path="url(#p0d4a2bb3d9)" d="M -1 145.8 
L 874.72 145.8 
L 874.72 145.8 
" style="fill:none;stroke:#555555;stroke-width:0.5;"/>
    <path clip-path="url(#p0d4a2bb3d9)" d="M -1 13.596923 
L 874.72 13.596923 
L 874.72 13.596923 
" style="fill:none;stroke:#555555;stroke-width:0.5;"/>
   </g>
   <g id="PatchCollection_1">
    <path clip-path="url(#p0d4a2bb3d9)" d="M 337.707692 158.227089 
C 341.213759 158.227089 344.576698 156.834114 347.055862 154.354951 
C 349.535025 151.875787 350.928 148.512848 350.928 145.006782 
C 350.928 141.500715 349.535025 138.137776 347.055862 135.658612 
C 344.576698 133.179449 341.213759 131.786474 337.707692 131.786474 
C 334.201626 131.786474 330.838687 133.179449 328.359523 135.658612 
C 325.88036 138.137776 324.487385 141.500715 324.487385 145.006782 
C 324.487385 148.512848 325.88036 151.875787 328.359523 154.354951 
C 330.838687 156.834114 334.201626 158.227089 337.707692 158.227089 
z
" style="fill:#008000;stroke:#008000;"/>
    <path clip-path="url(#p0d4a2bb3d9)" d="M 444.770768 142.865234 
L 397.504445 159.67823 
L 397.292934 149.104099 
L 337.813448 150.293847 
L 337.601937 139.719716 
L 397.081424 138.529968 
L 396.869913 127.955837 
z
" style="fill:#008000;stroke:#008000;"/>
    <path clip-path="url(#p0d4a2bb3d9)" d="M 734.316923 156.376246 
L 734.316923 135.223754 
L 800.418462 135.223754 
L 800.418462 156.376246 
z
" style="fill:#f1b514;stroke:#302404;stroke-width:0.5;"/>
    <path clip-path="url(#p0d4a2bb3d9)" d="M 487.417036 154.418044 
L 485.815989 136.676694 
L 509.516232 134.537895 
L 511.117279 152.279244 
z
" style="fill:#d95558;stroke:#831d20;stroke-width:0.5;"/>
    <path clip-path="url(#p0d4a2bb3d9)" d="M 618.771434 153.384692 
L 618.771434 135.571247 
L 642.567988 135.571247 
L 642.567988 153.384692 
z
" style="fill:#d95558;stroke:#831d20;stroke-width:0.5;"/>
    <path clip-path="url(#p0d4a2bb3d9)" d="M 684.872972 99.18143 
L 684.872972 81.367985 
L 708.669526 81.367985 
L 708.669526 99.18143 
z
" style="fill:#d95558;stroke:#831d20;stroke-width:0.5;"/>
    <path clip-path="url(#p0d4a2bb3d9)" d="M 337.707692 151.616935 
C 339.460726 151.616935 341.142195 150.920448 342.381777 149.680866 
C 343.621359 148.441284 344.317846 146.759815 344.317846 145.006782 
C 344.317846 143.253748 343.621359 141.572279 342.381777 140.332697 
C 341.142195 139.093115 339.460726 138.396628 337.707692 138.396628 
C 335.954659 138.396628 334.273189 139.093115 333.033608 140.332697 
C 331.794026 141.572279 331.097538 143.253748 331.097538 145.006782 
C 331.097538 146.759815 331.794026 148.441284 333.033608 149.680866 
C 334.273189 150.920448 335.954659 151.616935 337.707692 151.616935 
z
" style="fill:#1d7eea;stroke:#00478f;stroke-width:0.5;"/>
   </g>
   <g id="line2d_1">
    <path clip-path="url(#p0d4a2bb3d9)" d="M 337.707692 145.006782 
" style="fill:none;stroke:#ffd700;stroke-linecap:square;stroke-width:2;"/>
   </g>
   <g id="line2d_2">
    <path clip-path="url(#p0d4a2bb3d9)" d="M 337.707692 145.006782 
L 349.605969 144.768816 
L 361.504246 144.53085 
L 373.402523 144.292885 
L 385.3008 144.054919 
L 397.199077 143.816954 
" style="fill:none;stroke:#ffd700;stroke-linecap:square;stroke-width:2;"/>
   </g>
   <g id="line2d_3">
    <path clip-path="url(#p0d4a2bb3d9)" d="M 337.707692 145.006782 
L 349.605969 144.768816 
L 361.502222 144.447785 
L 373.388911 143.877408 
L 385.247972 142.891196 
L 397.043681 141.32314 
" style="fill:none;stroke:#ffd700;stroke-linecap:square;stroke-width:2;"/>
   </g>
   <g id="line2d_4">
    <path clip-path="url(#p0d4a2bb3d9)" d="M 337.707692 145.006782 
L 349.605969 144.768816 
L 361.505545 144.61393 
L 373.405534 144.708574 
L 385.294544 145.219824 
L 397.143518 146.314987 
" style="fill:none;stroke:#ffd700;stroke-linecap:square;stroke-width:2;"/>
   </g>
   <g id="line2d_5">
    <path clip-path="url(#p0d4a2bb3d9)" d="M 397.199077 143.816954 
L 409.097354 143.578988 
L 420.995631 143.341023 
L 432.893908 143.103057 
L 444.792185 142.865092 
L 456.690462 142.627126 
" style="fill:none;stroke:#ffd700;stroke-linecap:square;stroke-width:2;"/>
   </g>
   <g id="line2d_6">
    <path clip-path="url(#p0d4a2bb3d9)" d="M 397.199077 143.816954 
L 409.097354 143.578988 
L 420.993607 143.257957 
L 432.880295 142.68758 
L 444.739357 141.701369 
L 456.535065 140.133312 
" style="fill:none;stroke:#ffd700;stroke-linecap:square;stroke-width:2;"/>
   </g>
   <g id="line2d_7">
    <path clip-path="url(#p0d4a2bb3d9)" d="M 397.199077 143.816954 
L 409.097354 143.578988 
L 420.99693 143.424103 
L 432.896919 143.518747 
L 444.785929 144.029996 
L 456.634902 145.125159 
" style="fill:none;stroke:#ffd700;stroke-linecap:square;stroke-width:2;"/>
   </g>
   <g id="line2d_8">
    <path clip-path="url(#p0d4a2bb3d9)" d="M 456.690462 142.627126 
L 468.588738 142.389161 
L 480.487015 142.151195 
L 492.385292 141.91323 
L 504.283569 141.675264 
L 516.181846 141.437298 
" style="fill:none;stroke:#ffd700;stroke-dasharray:7.4,3.2;stroke-dashoffset:0;stroke-width:2;"/>
   </g>
   <g id="line2d_9">
    <path clip-path="url(#p0d4a2bb3d9)" d="M 456.690462 142.627126 
L 468.588738 142.389161 
L 480.484991 142.06813 
L 492.37168 141.497752 
L 504.230741 140.511541 
L 516.02645 138.943484 
" style="fill:none;stroke:#ffd700;stroke-dasharray:7.4,3.2;stroke-dashoffset:0;stroke-width:2;"/>
   </g>
   <g id="line2d_10">
    <path clip-path="url(#p0d4a2bb3d9)" d="M 456.690462 142.627126 
L 468.588738 142.389161 
L 480.488314 142.234275 
L 492.388303 142.328919 
L 504.277314 142.840169 
L 516.126287 143.935332 
" style="fill:none;stroke:#ffd700;stroke-dasharray:7.4,3.2;stroke-dashoffset:0;stroke-width:2;"/>
   </g>
   <g id="line2d_11">
    <path clip-path="url(#p0d4a2bb3d9)" d="M 456.634902 145.125159 
L 468.387447 146.969721 
L 479.999874 149.556702 
L 491.471556 152.711673 
L 502.826082 156.266501 
L 514.103786 160.058686 
" style="fill:none;stroke:#ffd700;stroke-dasharray:7.4,3.2;stroke-dashoffset:0;stroke-width:2;"/>
   </g>
   <g id="line2d_12">
    <path clip-path="url(#p0d4a2bb3d9)" d="M 456.634902 145.125159 
L 468.387447 146.969721 
L 479.980216 149.640381 
L 491.355217 153.12378 
L 502.455548 157.402492 
L 513.225679 162.455114 
" style="fill:none;stroke:#ffd700;stroke-dasharray:7.4,3.2;stroke-dashoffset:0;stroke-width:2;"/>
   </g>
   <g id="line2d_13">
    <path clip-path="url(#p0d4a2bb3d9)" d="M 456.535065 140.133312 
L 468.204447 137.82025 
L 479.704133 134.770964 
L 491.040474 131.159773 
L 502.243762 127.153728 
L 513.360798 122.913588 
" style="fill:none;stroke:#ffd700;stroke-linecap:square;stroke-width:2;"/>
   </g>
   <g id="line2d_14">
    <path clip-path="url(#p0d4a2bb3d9)" d="M 456.535065 140.133312 
L 468.204447 137.82025 
L 479.681145 134.688139 
L 490.907748 130.752648 
L 501.828097 126.033463 
L 512.387562 120.554192 
" style="fill:none;stroke:#ffd700;stroke-linecap:square;stroke-width:2;"/>
   </g>
   <g id="line2d_15">
    <path clip-path="url(#p0d4a2bb3d9)" d="M 513.360798 122.913588 
L 524.448026 118.595907 
L 535.535254 114.278225 
L 546.622481 109.960544 
L 557.709709 105.642862 
L 568.796937 101.325181 
" style="fill:none;stroke:#ffd700;stroke-linecap:square;stroke-width:2;"/>
   </g>
   <g id="line2d_16">
    <path clip-path="url(#p0d4a2bb3d9)" d="M 513.360798 122.913588 
L 524.448026 118.595907 
L 535.50477 114.200947 
L 546.466734 109.575212 
L 557.259671 104.568634 
L 567.792921 99.037668 
" style="fill:none;stroke:#ffd700;stroke-linecap:square;stroke-width:2;"/>
   </g>
   <g id="line2d_17">
    <path clip-path="url(#p0d4a2bb3d9)" d="M 513.360798 122.913588 
L 524.448026 118.595907 
L 535.565062 114.355767 
L 546.76835 110.349722 
L 558.104691 106.73853 
L 569.604377 103.689245 
" style="fill:none;stroke:#ffd700;stroke-linecap:square;stroke-width:2;"/>
   </g>
   <g id="line2d_18">
    <path clip-path="url(#p0d4a2bb3d9)" d="M 512.387562 120.554192 
L 522.533321 114.342244 
L 532.264875 107.49843 
L 541.648561 100.184076 
L 550.77066 92.545401 
L 559.73076 84.716999 
" style="fill:none;stroke:#ffd700;stroke-linecap:square;stroke-width:2;"/>
   </g>
   <g id="line2d_19">
    <path clip-path="url(#p0d4a2bb3d9)" d="M 512.387562 120.554192 
L 522.533321 114.342244 
L 532.214621 107.428695 
L 541.38303 99.848129 
L 549.992686 91.638467 
L 558.000518 82.840778 
" style="fill:none;stroke:#ffd700;stroke-linecap:square;stroke-width:2;"/>
   </g>
   <g id="line2d_20">
    <path clip-path="url(#p0d4a2bb3d9)" d="M 569.604377 103.689245 
L 581.273759 101.376183 
L 593.067105 99.808408 
L 604.923792 98.822363 
L 616.808103 98.252068 
L 628.701976 97.931069 
" style="fill:none;stroke:#ffd700;stroke-linecap:square;stroke-width:2;"/>
   </g>
   <g id="line2d_21">
    <path clip-path="url(#p0d4a2bb3d9)" d="M 569.604377 103.689245 
L 581.273759 101.376183 
L 593.077448 99.89374 
L 604.956398 99.249333 
L 616.851186 99.446185 
L 628.702307 100.483311 
" style="fill:none;stroke:#ffd700;stroke-linecap:square;stroke-width:2;"/>
   </g>
   <g id="line2d_22">
    <path clip-path="url(#p0d4a2bb3d9)" d="M 628.702307 100.483311 
L 640.450479 102.355523 
L 652.056786 104.969824 
L 663.521012 108.151781 
L 674.867141 111.733319 
L 686.13589 115.552033 
" style="fill:none;stroke:#ffd700;stroke-linecap:square;stroke-width:2;"/>
   </g>
   <g id="line2d_23">
    <path clip-path="url(#p0d4a2bb3d9)" d="M 628.702307 100.483311 
L 640.450479 102.355523 
L 652.036931 105.053456 
L 663.403704 108.563614 
L 674.493935 112.868436 
L 685.252146 117.946388 
" style="fill:none;stroke:#ffd700;stroke-linecap:square;stroke-width:2;"/>
   </g>
   <g id="line2d_24">
    <path clip-path="url(#p0d4a2bb3d9)" d="M 686.13589 115.552033 
L 697.37777 119.449355 
L 708.619651 123.346678 
L 719.861531 127.244 
L 731.103411 131.141322 
L 742.345291 135.038645 
" style="fill:none;stroke:#ffd700;stroke-linecap:square;stroke-width:2;"/>
   </g>
   <g id="line2d_25">
    <path clip-path="url(#p0d4a2bb3d9)" d="M 686.13589 115.552033 
L 697.37777 119.449355 
L 708.646519 123.268069 
L 719.992648 126.849607 
L 731.456874 130.031564 
L 743.063181 132.645865 
" style="fill:none;stroke:#ffd700;stroke-linecap:square;stroke-width:2;"/>
   </g>
   <g id="line2d_26">
    <path clip-path="url(#p0d4a2bb3d9)" d="M 686.13589 115.552033 
L 697.37777 119.449355 
L 708.592097 123.425049 
L 719.720397 127.634921 
L 730.694124 132.231728 
L 741.428084 137.362325 
" style="fill:none;stroke:#008000;stroke-linecap:square;stroke-width:3;"/>
   </g>
   <g id="line2d_27">
    <path clip-path="url(#p0d4a2bb3d9)" d="M 337.707692 145.006782 
" style="fill:none;stroke:#008000;stroke-linecap:square;stroke-width:3;"/>
   </g>
   <g id="line2d_28">
    <path clip-path="url(#p0d4a2bb3d9)" d="M 337.707692 145.006782 
L 349.605969 144.768816 
L 361.504246 144.53085 
L 373.402523 144.292885 
L 385.3008 144.054919 
L 397.199077 143.816954 
" style="fill:none;stroke:#008000;stroke-linecap:square;stroke-width:3;"/>
   </g>
   <g id="line2d_29">
    <path clip-path="url(#p0d4a2bb3d9)" d="M 397.199077 143.816954 
L 409.097354 143.578988 
L 420.993607 143.257957 
L 432.880295 142.68758 
L 444.739357 141.701369 
L 456.535065 140.133312 
" style="fill:none;stroke:#008000;stroke-linecap:square;stroke-width:3;"/>
   </g>
   <g id="line2d_30">
    <path clip-path="url(#p0d4a2bb3d9)" d="M 456.535065 140.133312 
L 468.204447 137.82025 
L 479.704133 134.770964 
L 491.040474 131.159773 
L 502.243762 127.153728 
L 513.360798 122.913588 
" style="fill:none;stroke:#008000;stroke-linecap:square;stroke-width:3;"/>
   </g>
   <g id="line2d_31">
    <path clip-path="url(#p0d4a2bb3d9)" d="M 513.360798 122.913588 
L 524.448026 118.595907 
L 535.565062 114.355767 
L 546.76835 110.349722 
L 558.104691 106.73853 
L 569.604377 103.689245 
" style="fill:none;stroke:#008000;stroke-linecap:square;stroke-width:3;"/>
   </g>
   <g id="line2d_32">
    <path clip-path="url(#p0d4a2bb3d9)" d="M 569.604377 103.689245 
L 581.273759 101.376183 
L 593.077448 99.89374 
L 604.956398 99.249333 
L 616.851186 99.446185 
L 628.702307 100.483311 
" style="fill:none;stroke:#008000;stroke-linecap:square;stroke-width:3;"/>
   </g>
   <g id="line2d_33">
    <path clip-path="url(#p0d4a2bb3d9)" d="M 628.702307 100.483311 
L 640.450479 102.355523 
L 652.056786 104.969824 
L 663.521012 108.151781 
L 674.867141 111.733319 
L 686.13589 115.552033 
" style="fill:none;stroke:#008000;stroke-linecap:square;stroke-width:3;"/>
   </g>
   <g id="line2d_34">
    <path clip-path="url(#p0d4a2bb3d9)" d="M 686.13589 115.552033 
L 697.37777 119.449355 
L 708.592097 123.425049 
L 719.720397 127.634921 
L 730.694124 132.231728 
L 741.428084 137.362325 
" style="fill:none;stroke:#008000;stroke-linecap:square;stroke-width:3;"/>
   </g>
   <g id="line2d_35">
    <path clip-path="url(#p0d4a2bb3d9)" d="M 337.707692 145.006782 
" style="fill:none;stroke:#ffd700;stroke-linecap:square;stroke-width:1.5;"/>
    <defs>
     <path d="M 0 4 
C 1.060812 4 2.078319 3.578535 2.828427 2.828427 
C 3.578535 2.078319 4 1.060812 4 0 
C 4 -1.060812 3.578535 -2.078319 2.828427 -2.828427 
C 2.078319 -3.578535 1.060812 -4 0 -4 
C -1.060812 -4 -2.078319 -3.578535 -2.828427 -2.828427 
C -3.578535 -2.078319 -4 -1.060812 -4 0 
C -4 1.060812 -3.578535 2.078319 -2.828427 2.828427 
C -2.078319 3.578535 -1.060812 4 0 4 
z
" id="m6773c9775b" style="stroke:#ffd700;"/>
    </defs>
    <g clip-path="url(#p0d4a2bb3d9)">
     <use style="fill:#ffd700;stroke:#ffd700;" x="337.707692" xlink:href="#m6773c9775b" y="145.006782"/>
    </g>
   </g>
   <g id="line2d_36">
    <path clip-path="url(#p0d4a2bb3d9)" d="M 397.199077 143.816954 
" style="fill:none;stroke:#ffd700;stroke-linecap:square;stroke-width:1.5;"/>
    <g clip-path="url(#p0d4a2bb3d9)">
     <use style="fill:#ffd700;stroke:#ffd700;" x="397.199077" xlink:href="#m6773c9775b" y="143.816954"/>
    </g>
   </g>
   <g id="line2d_37">
    <path clip-path="url(#p0d4a2bb3d9)" d="M 397.043681 141.32314 
" style="fill:none;stroke:#ffd700;stroke-linecap:square;stroke-width:1.5;"/>
    <g clip-path="url(#p0d4a2bb3d9)">
     <use style="fill:#ffd700;stroke:#ffd700;" x="397.043681" xlink:href="#m6773c9775b" y="141.32314"/>
    </g>
   </g>
   <g id="line2d_38">
    <path clip-path="url(#p0d4a2bb3d9)" d="M 397.143518 146.314987 
" style="fill:none;stroke:#ffd700;stroke-linecap:square;stroke-width:1.5;"/>
    <g clip-path="url(#p0d4a2bb3d9)">
     <use style="fill:#ffd700;stroke:#ffd700;" x="397.143518" xlink:href="#m6773c9775b" y="146.314987"/>
    </g>
   </g>
   <g id="line2d_39">
    <path clip-path="url(#p0d4a2bb3d9)" d="M 456.690462 142.627126 
" style="fill:none;stroke:#ffd700;stroke-linecap:square;stroke-width:1.5;"/>
    <g clip-path="url(#p0d4a2bb3d9)">
     <use style="fill:#ffd700;stroke:#ffd700;" x="456.690462" xlink:href="#m6773c9775b" y="142.627126"/>
    </g>
   </g>
   <g id="line2d_40">
    <path clip-path="url(#p0d4a2bb3d9)" d="M 456.535065 140.133312 
" style="fill:none;stroke:#ffd700;stroke-linecap:square;stroke-width:1.5;"/>
    <g clip-path="url(#p0d4a2bb3d9)">
     <use style="fill:#ffd700;stroke:#ffd700;" x="456.535065" xlink:href="#m6773c9775b" y="140.133312"/>
    </g>
   </g>
   <g id="line2d_41">
    <path clip-path="url(#p0d4a2bb3d9)" d="M 456.634902 145.125159 
" style="fill:none;stroke:#ffd700;stroke-linecap:square;stroke-width:1.5;"/>
    <g clip-path="url(#p0d4a2bb3d9)">
     <use style="fill:#ffd700;stroke:#ffd700;" x="456.634902" xlink:href="#m6773c9775b" y="145.125159"/>
    </g>
   </g>
   <g id="line2d_42">
    <path clip-path="url(#p0d4a2bb3d9)" d="M 516.181846 141.437298 
" style="fill:none;stroke:#ffd700;stroke-linecap:square;stroke-width:1.5;"/>
    <g clip-path="url(#p0d4a2bb3d9)">
     <use style="fill:#ffd700;stroke:#ffd700;" x="516.181846" xlink:href="#m6773c9775b" y="141.437298"/>
    </g>
   </g>
   <g id="line2d_43">
    <path clip-path="url(#p0d4a2bb3d9)" d="M 516.02645 138.943484 
" style="fill:none;stroke:#ffd700;stroke-linecap:square;stroke-width:1.5;"/>
    <g clip-path="url(#p0d4a2bb3d9)">
     <use style="fill:#ffd700;stroke:#ffd700;" x="516.02645" xlink:href="#m6773c9775b" y="138.943484"/>
    </g>
   </g>
   <g id="line2d_44">
    <path clip-path="url(#p0d4a2bb3d9)" d="M 516.126287 143.935332 
" style="fill:none;stroke:#ffd700;stroke-linecap:square;stroke-width:1.5;"/>
    <g clip-path="url(#p0d4a2bb3d9)">
     <use style="fill:#ffd700;stroke:#ffd700;" x="516.126287" xlink:href="#m6773c9775b" y="143.935332"/>
    </g>
   </g>
   <g id="line2d_45">
    <path clip-path="url(#p0d4a2bb3d9)" d="M 514.103786 160.058686 
" style="fill:none;stroke:#ffd700;stroke-linecap:square;stroke-width:1.5;"/>
    <g clip-path="url(#p0d4a2bb3d9)">
     <use style="fill:#ffd700;stroke:#ffd700;" x="514.103786" xlink:href="#m6773c9775b" y="160.058686"/>
    </g>
   </g>
   <g id="line2d_46">
    <path clip-path="url(#p0d4a2bb3d9)" d="M 513.225679 162.455114 
" style="fill:none;stroke:#ffd700;stroke-linecap:square;stroke-width:1.5;"/>
    <g clip-path="url(#p0d4a2bb3d9)">
     <use style="fill:#ffd700;stroke:#ffd700;" x="513.225679" xlink:href="#m6773c9775b" y="162.455114"/>
    </g>
   </g>
   <g id="line2d_47">
    <path clip-path="url(#p0d4a2bb3d9)" d="M 513.360798 122.913588 
" style="fill:none;stroke:#ffd700;stroke-linecap:square;stroke-width:1.5;"/>
    <g clip-path="url(#p0d4a2bb3d9)">
     <use style="fill:#ffd700;stroke:#ffd700;" x="513.360798" xlink:href="#m6773c9775b" y="122.913588"/>
    </g>
   </g>
   <g id="line2d_48">
    <path clip-path="url(#p0d4a2bb3d9)" d="M 512.387562 120.554192 
" style="fill:none;stroke:#ffd700;stroke-linecap:square;stroke-width:1.5;"/>
    <g clip-path="url(#p0d4a2bb3d9)">
     <use style="fill:#ffd700;stroke:#ffd700;" x="512.387562" xlink:href="#m6773c9775b" y="120.554192"/>
    </g>
   </g>
   <g id="line2d_49">
    <path clip-path="url(#p0d4a2bb3d9)" d="M 568.796937 101.325181 
" style="fill:none;stroke:#ffd700;stroke-linecap:square;stroke-width:1.5;"/>
    <g clip-path="url(#p0d4a2bb3d9)">
     <use style="fill:#ffd700;stroke:#ffd700;" x="568.796937" xlink:href="#m6773c9775b" y="101.325181"/>
    </g>
   </g>
   <g id="line2d_50">
    <path clip-path="url(#p0d4a2bb3d9)" d="M 567.792921 99.037668 
" style="fill:none;stroke:#ffd700;stroke-linecap:square;stroke-width:1.5;"/>
    <g clip-path="url(#p0d4a2bb3d9)">
     <use style="fill:#ffd700;stroke:#ffd700;" x="567.792921" xlink:href="#m6773c9775b" y="99.037668"/>
    </g>
   </g>
   <g id="line2d_51">
    <path clip-path="url(#p0d4a2bb3d9)" d="M 569.604377 103.689245 
" style="fill:none;stroke:#ffd700;stroke-linecap:square;stroke-width:1.5;"/>
    <g clip-path="url(#p0d4a2bb3d9)">
     <use style="fill:#ffd700;stroke:#ffd700;" x="569.604377" xlink:href="#m6773c9775b" y="103.689245"/>
    </g>
   </g>
   <g id="line2d_52">
    <path clip-path="url(#p0d4a2bb3d9)" d="M 559.73076 84.716999 
" style="fill:none;stroke:#ffd700;stroke-linecap:square;stroke-width:1.5;"/>
    <g clip-path="url(#p0d4a2bb3d9)">
     <use style="fill:#ffd700;stroke:#ffd700;" x="559.73076" xlink:href="#m6773c9775b" y="84.716999"/>
    </g>
   </g>
   <g id="line2d_53">
    <path clip-path="url(#p0d4a2bb3d9)" d="M 558.000518 82.840778 
" style="fill:none;stroke:#ffd700;stroke-linecap:square;stroke-width:1.5;"/>
    <g clip-path="url(#p0d4a2bb3d9)">
     <use style="fill:#ffd700;stroke:#ffd700;" x="558.000518" xlink:href="#m6773c9775b" y="82.840778"/>
    </g>
   </g>
   <g id="line2d_54">
    <path clip-path="url(#p0d4a2bb3d9)" d="M 628.701976 97.931069 
" style="fill:none;stroke:#ffd700;stroke-linecap:square;stroke-width:1.5;"/>
    <g clip-path="url(#p0d4a2bb3d9)">
     <use style="fill:#ffd700;stroke:#ffd700;" x="628.701976" xlink:href="#m6773c9775b" y="97.931069"/>
    </g>
   </g>
   <g id="line2d_55">
    <path clip-path="url(#p0d4a2bb3d9)" d="M 628.702307 100.483311 
" style="fill:none;stroke:#ffd700;stroke-linecap:square;stroke-width:1.5;"/>
    <g clip-path="url(#p0d4a2bb3d9)">
     <use style="fill:#ffd700;stroke:#ffd700;" x="628.702307" xlink:href="#m6773c9775b" y="100.483311"/>
    </g>
   </g>
   <g id="line2d_56">
    <path clip-path="url(#p0d4a2bb3d9)" d="M 686.13589 115.552033 
" style="fill:none;stroke:#ffd700;stroke-linecap:square;stroke-width:1.5;"/>
    <g clip-path="url(#p0d4a2bb3d9)">
     <use style="fill:#ffd700;stroke:#ffd700;" x="686.13589" xlink:href="#m6773c9775b" y="115.552033"/>
    </g>
   </g>
   <g id="line2d_57">
    <path clip-path="url(#p0d4a2bb3d9)" d="M 685.252146 117.946388 
" style="fill:none;stroke:#ffd700;stroke-linecap:square;stroke-width:1.5;"/>
    <g clip-path="url(#p0d4a2bb3d9)">
     <use style="fill:#ffd700;stroke:#ffd700;" x="685.252146" xlink:href="#m6773c9775b" y="117.946388"/>
    </g>
   </g>
   <g id="line2d_58">
    <path clip-path="url(#p0d4a2bb3d9)" d="M 742.345291 135.038645 
" style="fill:none;stroke:#ffd700;stroke-linecap:square;stroke-width:1.5;"/>
    <g clip-path="url(#p0d4a2bb3d9)">
     <use style="fill:#ffd700;stroke:#ffd700;" x="742.345291" xlink:href="#m6773c9775b" y="135.038645"/>
    </g>
   </g>
   <g id="line2d_59">
    <path clip-path="url(#p0d4a2bb3d9)" d="M 743.063181 132.645865 
" style="fill:none;stroke:#ffd700;stroke-linecap:square;stroke-width:1.5;"/>
    <g clip-path="url(#p0d4a2bb3d9)">
     <use style="fill:#ffd700;stroke:#ffd700;" x="743.063181" xlink:href="#m6773c9775b" y="132.645865"/>
    </g>
   </g>
   <g id="line2d_60">
    <path clip-path="url(#p0d4a2bb3d9)" d="M 741.428084 137.362325 
" style="fill:none;stroke:#008000;stroke-linecap:square;stroke-width:1.5;"/>
    <defs>
     <path d="M 0 4 
C 1.060812 4 2.078319 3.578535 2.828427 2.828427 
C 3.578535 2.078319 4 1.060812 4 0 
C 4 -1.060812 3.578535 -2.078319 2.828427 -2.828427 
C 2.078319 -3.578535 1.060812 -4 0 -4 
C -1.060812 -4 -2.078319 -3.578535 -2.828427 -2.828427 
C -3.578535 -2.078319 -4 -1.060812 -4 0 
C -4 1.060812 -3.578535 2.078319 -2.828427 2.828427 
C -2.078319 3.578535 -1.060812 4 0 4 
z
" id="m17a0f91cbb" style="stroke:#008000;"/>
    </defs>
    <g clip-path="url(#p0d4a2bb3d9)">
     <use style="fill:#008000;stroke:#008000;" x="741.428084" xlink:href="#m17a0f91cbb" y="137.362325"/>
    </g>
   </g>
   <g id="line2d_61">
    <path clip-path="url(#p0d4a2bb3d9)" d="M 337.707692 145.006782 
" style="fill:none;stroke:#008000;stroke-linecap:square;stroke-width:1.5;"/>
    <g clip-path="url(#p0d4a2bb3d9)">
     <use style="fill:#008000;stroke:#008000;" x="337.707692" xlink:href="#m17a0f91cbb" y="145.006782"/>
    </g>
   </g>
   <g id="line2d_62">
    <path clip-path="url(#p0d4a2bb3d9)" d="M 397.199077 143.816954 
" style="fill:none;stroke:#008000;stroke-linecap:square;stroke-width:1.5;"/>
    <g clip-path="url(#p0d4a2bb3d9)">
     <use style="fill:#008000;stroke:#008000;" x="397.199077" xlink:href="#m17a0f91cbb" y="143.816954"/>
    </g>
   </g>
   <g id="line2d_63">
    <path clip-path="url(#p0d4a2bb3d9)" d="M 456.535065 140.133312 
" style="fill:none;stroke:#008000;stroke-linecap:square;stroke-width:1.5;"/>
    <g clip-path="url(#p0d4a2bb3d9)">
     <use style="fill:#008000;stroke:#008000;" x="456.535065" xlink:href="#m17a0f91cbb" y="140.133312"/>
    </g>
   </g>
   <g id="line2d_64">
    <path clip-path="url(#p0d4a2bb3d9)" d="M 513.360798 122.913588 
" style="fill:none;stroke:#008000;stroke-linecap:square;stroke-width:1.5;"/>
    <g clip-path="url(#p0d4a2bb3d9)">
     <use style="fill:#008000;stroke:#008000;" x="513.360798" xlink:href="#m17a0f91cbb" y="122.913588"/>
    </g>
   </g>
   <g id="line2d_65">
    <path clip-path="url(#p0d4a2bb3d9)" d="M 569.604377 103.689245 
" style="fill:none;stroke:#008000;stroke-linecap:square;stroke-width:1.5;"/>
    <g clip-path="url(#p0d4a2bb3d9)">
     <use style="fill:#008000;stroke:#008000;" x="569.604377" xlink:href="#m17a0f91cbb" y="103.689245"/>
    </g>
   </g>
   <g id="line2d_66">
    <path clip-path="url(#p0d4a2bb3d9)" d="M 628.702307 100.483311 
" style="fill:none;stroke:#008000;stroke-linecap:square;stroke-width:1.5;"/>
    <g clip-path="url(#p0d4a2bb3d9)">
     <use style="fill:#008000;stroke:#008000;" x="628.702307" xlink:href="#m17a0f91cbb" y="100.483311"/>
    </g>
   </g>
   <g id="line2d_67">
    <path clip-path="url(#p0d4a2bb3d9)" d="M 686.13589 115.552033 
" style="fill:none;stroke:#008000;stroke-linecap:square;stroke-width:1.5;"/>
    <g clip-path="url(#p0d4a2bb3d9)">
     <use style="fill:#008000;stroke:#008000;" x="686.13589" xlink:href="#m17a0f91cbb" y="115.552033"/>
    </g>
   </g>
   <g id="line2d_68">
    <path clip-path="url(#p0d4a2bb3d9)" d="M 741.428084 137.362325 
" style="fill:none;stroke:#008000;stroke-linecap:square;stroke-width:1.5;"/>
    <g clip-path="url(#p0d4a2bb3d9)">
     <use style="fill:#008000;stroke:#008000;" x="741.428084" xlink:href="#m17a0f91cbb" y="137.362325"/>
    </g>
   </g>
  </g>
 </g>
 <defs>
  <clipPath id="p0d4a2bb3d9">
   <rect height="277.2" width="859.32" x="7.2" y="7.2"/>
  </clipPath>
 </defs>
</svg>
