<?xml version="1.0" encoding="utf-8" standalone="no"?>
<!DOCTYPE svg PUBLIC "-//W3C//DTD SVG 1.1//EN"
  "http://www.w3.org/Graphics/SVG/1.1/DTD/svg11.dtd">
<!-- Created with matplotlib (https://matplotlib.org/) -->
<svg height="291.6pt" version="1.1" viewBox="0 0 873.72 291.6" width="873.72pt" xmlns="http://www.w3.org/2000/svg" xmlns:xlink="http://www.w3.org/1999/xlink">
 <metadata>
  <rdf:RDF xmlns:cc="http://creativecommons.org/ns#" xmlns:dc="http://purl.org/dc/elements/1.1/" xmlns:rdf="http://www.w3.org/1999/02/22-rdf-syntax-ns#">
   <cc:Work>
    <dc:type rdf:resource="http://purl.org/dc/dcmitype/StillImage"/>
    <dc:date>2022-04-22T00:15:56.428746</dc:date>
    <dc:format>image/svg+xml</dc:format>
    <dc:creator>
     <cc:Agent>
      <dc:title>Matplotlib v3.3.4, https://matplotlib.org/</dc:title>
     </cc:Agent>
    </dc:creator>
   </cc:Work>
  </rdf:RDF>
 </metadata>
 <defs>
  <style type="text/css">*{stroke-linecap:butt;stroke-linejoin:round;}</style>
 </defs>
 <g id="figure_1">
  <g id="patch_1">
   <path d="M 0 291.6 
L 873.72 291.6 
L 873.72 0 
L 0 0 
z
" style="fill:#ffffff;"/>
  </g>
  <g id="axes_1">
   <g id="PolyCollection_1">
    <path clip-path="url(#p1ee2a8506e)" d="M -587.713846 278.003077 
L -574.493538 278.003077 
L -561.273231 278.003077 
L -548.052923 278.003077 
L -534.832615 278.003077 
L -521.612308 278.003077 
L -508.392 278.003077 
L -495.171692 278.003077 
L -481.951385 278.003077 
L -468.731077 278.003077 
L -455.510769 278.003077 
L -442.290462 278.003077 
L -429.070154 278.003077 
L -415.849846 278.003077 
L -402.629538 278.003077 
L -389.409231 278.003077 
L -376.188923 278.003077 
L -362.968615 278.003077 
L -349.748308 278.003077 
L -336.528 278.003077 
L -323.307692 278.003077 
L -310.087385 278.003077 
L -296.867077 278.003077 
L -283.646769 278.003077 
L -270.426462 278.003077 
L -257.206154 278.003077 
L -243.985846 278.003077 
L -230.765538 278.003077 
L -217.545231 278.003077 
L -204.324923 278.003077 
L -191.104615 278.003077 
L -177.884308 278.003077 
L -164.664 278.003077 
L -151.443692 278.003077 
L -138.223385 278.003077 
L -125.003077 278.003077 
L -111.782769 278.003077 
L -98.562462 278.003077 
L -85.342154 278.003077 
L -72.121846 278.003077 
L -58.901538 278.003077 
L -45.681231 278.003077 
L -32.460923 278.003077 
L -19.240615 278.003077 
L -6.020308 278.003077 
L 7.2 278.003077 
L 20.420308 278.003077 
L 33.640615 278.003077 
L 46.860923 278.003077 
L 60.081231 278.003077 
L 73.301538 278.003077 
L 86.521846 278.003077 
L 99.742154 278.003077 
L 112.962462 278.003077 
L 126.182769 278.003077 
L 139.403077 278.003077 
L 152.623385 278.003077 
L 165.843692 278.003077 
L 179.064 278.003077 
L 192.284308 278.003077 
L 205.504615 278.003077 
L 218.724923 278.003077 
L 231.945231 278.003077 
L 245.165538 278.003077 
L 258.385846 278.003077 
L 271.606154 278.003077 
L 284.826462 278.003077 
L 298.046769 278.003077 
L 311.267077 278.003077 
L 324.487385 278.003077 
L 337.707692 278.003077 
L 350.928 278.003077 
L 364.148308 278.003077 
L 377.368615 278.003077 
L 390.588923 278.003077 
L 403.809231 278.003077 
L 417.029538 278.003077 
L 430.249846 278.003077 
L 443.470154 278.003077 
L 456.690462 278.003077 
L 469.910769 278.003077 
L 483.131077 278.003077 
L 496.351385 278.003077 
L 509.571692 278.003077 
L 522.792 278.003077 
L 536.012308 278.003077 
L 549.232615 278.003077 
L 562.452923 278.003077 
L 575.673231 278.003077 
L 588.893538 278.003077 
L 602.113846 278.003077 
L 615.334154 278.003077 
L 628.554462 278.003077 
L 641.774769 278.003077 
L 654.995077 278.003077 
L 668.215385 278.003077 
L 681.435692 278.003077 
L 694.656 278.003077 
L 707.876308 278.003077 
L 721.096615 278.003077 
L 734.316923 278.003077 
L 747.537231 278.003077 
L 760.757538 278.003077 
L 773.977846 278.003077 
L 787.198154 278.003077 
L 800.418462 278.003077 
L 813.638769 278.003077 
L 826.859077 278.003077 
L 840.079385 278.003077 
L 853.299692 278.003077 
L 866.52 278.003077 
L 879.740308 278.003077 
L 892.960615 278.003077 
L 906.180923 278.003077 
L 919.401231 278.003077 
L 932.621538 278.003077 
L 945.841846 278.003077 
L 959.062154 278.003077 
L 972.282462 278.003077 
L 985.502769 278.003077 
L 998.723077 278.003077 
L 1011.943385 278.003077 
L 1025.163692 278.003077 
L 1038.384 278.003077 
L 1051.604308 278.003077 
L 1064.824615 278.003077 
L 1078.044923 278.003077 
L 1091.265231 278.003077 
L 1104.485538 278.003077 
L 1117.705846 278.003077 
L 1130.926154 278.003077 
L 1144.146462 278.003077 
L 1157.366769 278.003077 
L 1170.587077 278.003077 
L 1183.807385 278.003077 
L 1197.027692 278.003077 
L 1210.248 278.003077 
L 1223.468308 278.003077 
L 1236.688615 278.003077 
L 1249.908923 278.003077 
L 1263.129231 278.003077 
L 1276.349538 278.003077 
L 1289.569846 278.003077 
L 1302.790154 278.003077 
L 1316.010462 278.003077 
L 1329.230769 278.003077 
L 1342.451077 278.003077 
L 1355.671385 278.003077 
L 1368.891692 278.003077 
L 1382.112 278.003077 
L 1395.332308 278.003077 
L 1408.552615 278.003077 
L 1421.772923 278.003077 
L 1434.993231 278.003077 
L 1448.213538 278.003077 
L 1461.433846 278.003077 
L 1474.654154 278.003077 
L 1487.874462 278.003077 
L 1501.094769 278.003077 
L 1514.315077 278.003077 
L 1527.535385 278.003077 
L 1540.755692 278.003077 
L 1553.976 278.003077 
L 1567.196308 278.003077 
L 1580.416615 278.003077 
L 1593.636923 278.003077 
L 1606.857231 278.003077 
L 1620.077538 278.003077 
L 1633.297846 278.003077 
L 1646.518154 278.003077 
L 1659.738462 278.003077 
L 1672.958769 278.003077 
L 1686.179077 278.003077 
L 1699.399385 278.003077 
L 1712.619692 278.003077 
L 1725.84 278.003077 
L 1739.060308 278.003077 
L 1752.280615 278.003077 
L 1765.500923 278.003077 
L 1778.721231 278.003077 
L 1791.941538 278.003077 
L 1805.161846 278.003077 
L 1818.382154 278.003077 
L 1831.602462 278.003077 
L 1844.822769 278.003077 
L 1858.043077 278.003077 
L 1871.263385 278.003077 
L 1884.483692 278.003077 
L 1897.704 278.003077 
L 1910.924308 278.003077 
L 1924.144615 278.003077 
L 1937.364923 278.003077 
L 1950.585231 278.003077 
L 1963.805538 278.003077 
L 1977.025846 278.003077 
L 1990.246154 278.003077 
L 2003.466462 278.003077 
L 2016.686769 278.003077 
L 2029.907077 278.003077 
L 2043.127385 278.003077 
L 2056.347692 278.003077 
L 2069.568 278.003077 
L 2082.788308 278.003077 
L 2096.008615 278.003077 
L 2109.228923 278.003077 
L 2122.449231 278.003077 
L 2135.669538 278.003077 
L 2148.889846 278.003077 
L 2162.110154 278.003077 
L 2175.330462 278.003077 
L 2175.330462 145.8 
L 2162.110154 145.8 
L 2148.889846 145.8 
L 2135.669538 145.8 
L 2122.449231 145.8 
L 2109.228923 145.8 
L 2096.008615 145.8 
L 2082.788308 145.8 
L 2069.568 145.8 
L 2056.347692 145.8 
L 2043.127385 145.8 
L 2029.907077 145.8 
L 2016.686769 145.8 
L 2003.466462 145.8 
L 1990.246154 145.8 
L 1977.025846 145.8 
L 1963.805538 145.8 
L 1950.585231 145.8 
L 1937.364923 145.8 
L 1924.144615 145.8 
L 1910.924308 145.8 
L 1897.704 145.8 
L 1884.483692 145.8 
L 1871.263385 145.8 
L 1858.043077 145.8 
L 1844.822769 145.8 
L 1831.602462 145.8 
L 1818.382154 145.8 
L 1805.161846 145.8 
L 1791.941538 145.8 
L 1778.721231 145.8 
L 1765.500923 145.8 
L 1752.280615 145.8 
L 1739.060308 145.8 
L 1725.84 145.8 
L 1712.619692 145.8 
L 1699.399385 145.8 
L 1686.179077 145.8 
L 1672.958769 145.8 
L 1659.738462 145.8 
L 1646.518154 145.8 
L 1633.297846 145.8 
L 1620.077538 145.8 
L 1606.857231 145.8 
L 1593.636923 145.8 
L 1580.416615 145.8 
L 1567.196308 145.8 
L 1553.976 145.8 
L 1540.755692 145.8 
L 1527.535385 145.8 
L 1514.315077 145.8 
L 1501.094769 145.8 
L 1487.874462 145.8 
L 1474.654154 145.8 
L 1461.433846 145.8 
L 1448.213538 145.8 
L 1434.993231 145.8 
L 1421.772923 145.8 
L 1408.552615 145.8 
L 1395.332308 145.8 
L 1382.112 145.8 
L 1368.891692 145.8 
L 1355.671385 145.8 
L 1342.451077 145.8 
L 1329.230769 145.8 
L 1316.010462 145.8 
L 1302.790154 145.8 
L 1289.569846 145.8 
L 1276.349538 145.8 
L 1263.129231 145.8 
L 1249.908923 145.8 
L 1236.688615 145.8 
L 1223.468308 145.8 
L 1210.248 145.8 
L 1197.027692 145.8 
L 1183.807385 145.8 
L 1170.587077 145.8 
L 1157.366769 145.8 
L 1144.146462 145.8 
L 1130.926154 145.8 
L 1117.705846 145.8 
L 1104.485538 145.8 
L 1091.265231 145.8 
L 1078.044923 145.8 
L 1064.824615 145.8 
L 1051.604308 145.8 
L 1038.384 145.8 
L 1025.163692 145.8 
L 1011.943385 145.8 
L 998.723077 145.8 
L 985.502769 145.8 
L 972.282462 145.8 
L 959.062154 145.8 
L 945.841846 145.8 
L 932.621538 145.8 
L 919.401231 145.8 
L 906.180923 145.8 
L 892.960615 145.8 
L 879.740308 145.8 
L 866.52 145.8 
L 853.299692 145.8 
L 840.079385 145.8 
L 826.859077 145.8 
L 813.638769 145.8 
L 800.418462 145.8 
L 787.198154 145.8 
L 773.977846 145.8 
L 760.757538 145.8 
L 747.537231 145.8 
L 734.316923 145.8 
L 721.096615 145.8 
L 707.876308 145.8 
L 694.656 145.8 
L 681.435692 145.8 
L 668.215385 145.8 
L 654.995077 145.8 
L 641.774769 145.8 
L 628.554462 145.8 
L 615.334154 145.8 
L 602.113846 145.8 
L 588.893538 145.8 
L 575.673231 145.8 
L 562.452923 145.8 
L 549.232615 145.8 
L 536.012308 145.8 
L 522.792 145.8 
L 509.571692 145.8 
L 496.351385 145.8 
L 483.131077 145.8 
L 469.910769 145.8 
L 456.690462 145.8 
L 443.470154 145.8 
L 430.249846 145.8 
L 417.029538 145.8 
L 403.809231 145.8 
L 390.588923 145.8 
L 377.368615 145.8 
L 364.148308 145.8 
L 350.928 145.8 
L 337.707692 145.8 
L 324.487385 145.8 
L 311.267077 145.8 
L 298.046769 145.8 
L 284.826462 145.8 
L 271.606154 145.8 
L 258.385846 145.8 
L 245.165538 145.8 
L 231.945231 145.8 
L 218.724923 145.8 
L 205.504615 145.8 
L 192.284308 145.8 
L 179.064 145.8 
L 165.843692 145.8 
L 152.623385 145.8 
L 139.403077 145.8 
L 126.182769 145.8 
L 112.962462 145.8 
L 99.742154 145.8 
L 86.521846 145.8 
L 73.301538 145.8 
L 60.081231 145.8 
L 46.860923 145.8 
L 33.640615 145.8 
L 20.420308 145.8 
L 7.2 145.8 
L -6.020308 145.8 
L -19.240615 145.8 
L -32.460923 145.8 
L -45.681231 145.8 
L -58.901538 145.8 
L -72.121846 145.8 
L -85.342154 145.8 
L -98.562462 145.8 
L -111.782769 145.8 
L -125.003077 145.8 
L -138.223385 145.8 
L -151.443692 145.8 
L -164.664 145.8 
L -177.884308 145.8 
L -191.104615 145.8 
L -204.324923 145.8 
L -217.545231 145.8 
L -230.765538 145.8 
L -243.985846 145.8 
L -257.206154 145.8 
L -270.426462 145.8 
L -283.646769 145.8 
L -296.867077 145.8 
L -310.087385 145.8 
L -323.307692 145.8 
L -336.528 145.8 
L -349.748308 145.8 
L -362.968615 145.8 
L -376.188923 145.8 
L -389.409231 145.8 
L -402.629538 145.8 
L -415.849846 145.8 
L -429.070154 145.8 
L -442.290462 145.8 
L -455.510769 145.8 
L -468.731077 145.8 
L -481.951385 145.8 
L -495.171692 145.8 
L -508.392 145.8 
L -521.612308 145.8 
L -534.832615 145.8 
L -548.052923 145.8 
L -561.273231 145.8 
L -574.493538 145.8 
L -587.713846 145.8 
z
" style="fill:#c7c7c7;"/>
    <path clip-path="url(#p1ee2a8506e)" d="M -587.713846 145.8 
L -574.493538 145.8 
L -561.273231 145.8 
L -548.052923 145.8 
L -534.832615 145.8 
L -521.612308 145.8 
L -508.392 145.8 
L -495.171692 145.8 
L -481.951385 145.8 
L -468.731077 145.8 
L -455.510769 145.8 
L -442.290462 145.8 
L -429.070154 145.8 
L -415.849846 145.8 
L -402.629538 145.8 
L -389.409231 145.8 
L -376.188923 145.8 
L -362.968615 145.8 
L -349.748308 145.8 
L -336.528 145.8 
L -323.307692 145.8 
L -310.087385 145.8 
L -296.867077 145.8 
L -283.646769 145.8 
L -270.426462 145.8 
L -257.206154 145.8 
L -243.985846 145.8 
L -230.765538 145.8 
L -217.545231 145.8 
L -204.324923 145.8 
L -191.104615 145.8 
L -177.884308 145.8 
L -164.664 145.8 
L -151.443692 145.8 
L -138.223385 145.8 
L -125.003077 145.8 
L -111.782769 145.8 
L -98.562462 145.8 
L -85.342154 145.8 
L -72.121846 145.8 
L -58.901538 145.8 
L -45.681231 145.8 
L -32.460923 145.8 
L -19.240615 145.8 
L -6.020308 145.8 
L 7.2 145.8 
L 20.420308 145.8 
L 33.640615 145.8 
L 46.860923 145.8 
L 60.081231 145.8 
L 73.301538 145.8 
L 86.521846 145.8 
L 99.742154 145.8 
L 112.962462 145.8 
L 126.182769 145.8 
L 139.403077 145.8 
L 152.623385 145.8 
L 165.843692 145.8 
L 179.064 145.8 
L 192.284308 145.8 
L 205.504615 145.8 
L 218.724923 145.8 
L 231.945231 145.8 
L 245.165538 145.8 
L 258.385846 145.8 
L 271.606154 145.8 
L 284.826462 145.8 
L 298.046769 145.8 
L 311.267077 145.8 
L 324.487385 145.8 
L 337.707692 145.8 
L 350.928 145.8 
L 364.148308 145.8 
L 377.368615 145.8 
L 390.588923 145.8 
L 403.809231 145.8 
L 417.029538 145.8 
L 430.249846 145.8 
L 443.470154 145.8 
L 456.690462 145.8 
L 469.910769 145.8 
L 483.131077 145.8 
L 496.351385 145.8 
L 509.571692 145.8 
L 522.792 145.8 
L 536.012308 145.8 
L 549.232615 145.8 
L 562.452923 145.8 
L 575.673231 145.8 
L 588.893538 145.8 
L 602.113846 145.8 
L 615.334154 145.8 
L 628.554462 145.8 
L 641.774769 145.8 
L 654.995077 145.8 
L 668.215385 145.8 
L 681.435692 145.8 
L 694.656 145.8 
L 707.876308 145.8 
L 721.096615 145.8 
L 734.316923 145.8 
L 747.537231 145.8 
L 760.757538 145.8 
L 773.977846 145.8 
L 787.198154 145.8 
L 800.418462 145.8 
L 813.638769 145.8 
L 826.859077 145.8 
L 840.079385 145.8 
L 853.299692 145.8 
L 866.52 145.8 
L 879.740308 145.8 
L 892.960615 145.8 
L 906.180923 145.8 
L 919.401231 145.8 
L 932.621538 145.8 
L 945.841846 145.8 
L 959.062154 145.8 
L 972.282462 145.8 
L 985.502769 145.8 
L 998.723077 145.8 
L 1011.943385 145.8 
L 1025.163692 145.8 
L 1038.384 145.8 
L 1051.604308 145.8 
L 1064.824615 145.8 
L 1078.044923 145.8 
L 1091.265231 145.8 
L 1104.485538 145.8 
L 1117.705846 145.8 
L 1130.926154 145.8 
L 1144.146462 145.8 
L 1157.366769 145.8 
L 1170.587077 145.8 
L 1183.807385 145.8 
L 1197.027692 145.8 
L 1210.248 145.8 
L 1223.468308 145.8 
L 1236.688615 145.8 
L 1249.908923 145.8 
L 1263.129231 145.8 
L 1276.349538 145.8 
L 1289.569846 145.8 
L 1302.790154 145.8 
L 1316.010462 145.8 
L 1329.230769 145.8 
L 1342.451077 145.8 
L 1355.671385 145.8 
L 1368.891692 145.8 
L 1382.112 145.8 
L 1395.332308 145.8 
L 1408.552615 145.8 
L 1421.772923 145.8 
L 1434.993231 145.8 
L 1448.213538 145.8 
L 1461.433846 145.8 
L 1474.654154 145.8 
L 1487.874462 145.8 
L 1501.094769 145.8 
L 1514.315077 145.8 
L 1527.535385 145.8 
L 1540.755692 145.8 
L 1553.976 145.8 
L 1567.196308 145.8 
L 1580.416615 145.8 
L 1593.636923 145.8 
L 1606.857231 145.8 
L 1620.077538 145.8 
L 1633.297846 145.8 
L 1646.518154 145.8 
L 1659.738462 145.8 
L 1672.958769 145.8 
L 1686.179077 145.8 
L 1699.399385 145.8 
L 1712.619692 145.8 
L 1725.84 145.8 
L 1739.060308 145.8 
L 1752.280615 145.8 
L 1765.500923 145.8 
L 1778.721231 145.8 
L 1791.941538 145.8 
L 1805.161846 145.8 
L 1818.382154 145.8 
L 1831.602462 145.8 
L 1844.822769 145.8 
L 1858.043077 145.8 
L 1871.263385 145.8 
L 1884.483692 145.8 
L 1897.704 145.8 
L 1910.924308 145.8 
L 1924.144615 145.8 
L 1937.364923 145.8 
L 1950.585231 145.8 
L 1963.805538 145.8 
L 1977.025846 145.8 
L 1990.246154 145.8 
L 2003.466462 145.8 
L 2016.686769 145.8 
L 2029.907077 145.8 
L 2043.127385 145.8 
L 2056.347692 145.8 
L 2069.568 145.8 
L 2082.788308 145.8 
L 2096.008615 145.8 
L 2109.228923 145.8 
L 2122.449231 145.8 
L 2135.669538 145.8 
L 2148.889846 145.8 
L 2162.110154 145.8 
L 2175.330462 145.8 
L 2175.330462 13.596923 
L 2162.110154 13.596923 
L 2148.889846 13.596923 
L 2135.669538 13.596923 
L 2122.449231 13.596923 
L 2109.228923 13.596923 
L 2096.008615 13.596923 
L 2082.788308 13.596923 
L 2069.568 13.596923 
L 2056.347692 13.596923 
L 2043.127385 13.596923 
L 2029.907077 13.596923 
L 2016.686769 13.596923 
L 2003.466462 13.596923 
L 1990.246154 13.596923 
L 1977.025846 13.596923 
L 1963.805538 13.596923 
L 1950.585231 13.596923 
L 1937.364923 13.596923 
L 1924.144615 13.596923 
L 1910.924308 13.596923 
L 1897.704 13.596923 
L 1884.483692 13.596923 
L 1871.263385 13.596923 
L 1858.043077 13.596923 
L 1844.822769 13.596923 
L 1831.602462 13.596923 
L 1818.382154 13.596923 
L 1805.161846 13.596923 
L 1791.941538 13.596923 
L 1778.721231 13.596923 
L 1765.500923 13.596923 
L 1752.280615 13.596923 
L 1739.060308 13.596923 
L 1725.84 13.596923 
L 1712.619692 13.596923 
L 1699.399385 13.596923 
L 1686.179077 13.596923 
L 1672.958769 13.596923 
L 1659.738462 13.596923 
L 1646.518154 13.596923 
L 1633.297846 13.596923 
L 1620.077538 13.596923 
L 1606.857231 13.596923 
L 1593.636923 13.596923 
L 1580.416615 13.596923 
L 1567.196308 13.596923 
L 1553.976 13.596923 
L 1540.755692 13.596923 
L 1527.535385 13.596923 
L 1514.315077 13.596923 
L 1501.094769 13.596923 
L 1487.874462 13.596923 
L 1474.654154 13.596923 
L 1461.433846 13.596923 
L 1448.213538 13.596923 
L 1434.993231 13.596923 
L 1421.772923 13.596923 
L 1408.552615 13.596923 
L 1395.332308 13.596923 
L 1382.112 13.596923 
L 1368.891692 13.596923 
L 1355.671385 13.596923 
L 1342.451077 13.596923 
L 1329.230769 13.596923 
L 1316.010462 13.596923 
L 1302.790154 13.596923 
L 1289.569846 13.596923 
L 1276.349538 13.596923 
L 1263.129231 13.596923 
L 1249.908923 13.596923 
L 1236.688615 13.596923 
L 1223.468308 13.596923 
L 1210.248 13.596923 
L 1197.027692 13.596923 
L 1183.807385 13.596923 
L 1170.587077 13.596923 
L 1157.366769 13.596923 
L 1144.146462 13.596923 
L 1130.926154 13.596923 
L 1117.705846 13.596923 
L 1104.485538 13.596923 
L 1091.265231 13.596923 
L 1078.044923 13.596923 
L 1064.824615 13.596923 
L 1051.604308 13.596923 
L 1038.384 13.596923 
L 1025.163692 13.596923 
L 1011.943385 13.596923 
L 998.723077 13.596923 
L 985.502769 13.596923 
L 972.282462 13.596923 
L 959.062154 13.596923 
L 945.841846 13.596923 
L 932.621538 13.596923 
L 919.401231 13.596923 
L 906.180923 13.596923 
L 892.960615 13.596923 
L 879.740308 13.596923 
L 866.52 13.596923 
L 853.299692 13.596923 
L 840.079385 13.596923 
L 826.859077 13.596923 
L 813.638769 13.596923 
L 800.418462 13.596923 
L 787.198154 13.596923 
L 773.977846 13.596923 
L 760.757538 13.596923 
L 747.537231 13.596923 
L 734.316923 13.596923 
L 721.096615 13.596923 
L 707.876308 13.596923 
L 694.656 13.596923 
L 681.435692 13.596923 
L 668.215385 13.596923 
L 654.995077 13.596923 
L 641.774769 13.596923 
L 628.554462 13.596923 
L 615.334154 13.596923 
L 602.113846 13.596923 
L 588.893538 13.596923 
L 575.673231 13.596923 
L 562.452923 13.596923 
L 549.232615 13.596923 
L 536.012308 13.596923 
L 522.792 13.596923 
L 509.571692 13.596923 
L 496.351385 13.596923 
L 483.131077 13.596923 
L 469.910769 13.596923 
L 456.690462 13.596923 
L 443.470154 13.596923 
L 430.249846 13.596923 
L 417.029538 13.596923 
L 403.809231 13.596923 
L 390.588923 13.596923 
L 377.368615 13.596923 
L 364.148308 13.596923 
L 350.928 13.596923 
L 337.707692 13.596923 
L 324.487385 13.596923 
L 311.267077 13.596923 
L 298.046769 13.596923 
L 284.826462 13.596923 
L 271.606154 13.596923 
L 258.385846 13.596923 
L 245.165538 13.596923 
L 231.945231 13.596923 
L 218.724923 13.596923 
L 205.504615 13.596923 
L 192.284308 13.596923 
L 179.064 13.596923 
L 165.843692 13.596923 
L 152.623385 13.596923 
L 139.403077 13.596923 
L 126.182769 13.596923 
L 112.962462 13.596923 
L 99.742154 13.596923 
L 86.521846 13.596923 
L 73.301538 13.596923 
L 60.081231 13.596923 
L 46.860923 13.596923 
L 33.640615 13.596923 
L 20.420308 13.596923 
L 7.2 13.596923 
L -6.020308 13.596923 
L -19.240615 13.596923 
L -32.460923 13.596923 
L -45.681231 13.596923 
L -58.901538 13.596923 
L -72.121846 13.596923 
L -85.342154 13.596923 
L -98.562462 13.596923 
L -111.782769 13.596923 
L -125.003077 13.596923 
L -138.223385 13.596923 
L -151.443692 13.596923 
L -164.664 13.596923 
L -177.884308 13.596923 
L -191.104615 13.596923 
L -204.324923 13.596923 
L -217.545231 13.596923 
L -230.765538 13.596923 
L -243.985846 13.596923 
L -257.206154 13.596923 
L -270.426462 13.596923 
L -283.646769 13.596923 
L -296.867077 13.596923 
L -310.087385 13.596923 
L -323.307692 13.596923 
L -336.528 13.596923 
L -349.748308 13.596923 
L -362.968615 13.596923 
L -376.188923 13.596923 
L -389.409231 13.596923 
L -402.629538 13.596923 
L -415.849846 13.596923 
L -429.070154 13.596923 
L -442.290462 13.596923 
L -455.510769 13.596923 
L -468.731077 13.596923 
L -481.951385 13.596923 
L -495.171692 13.596923 
L -508.392 13.596923 
L -521.612308 13.596923 
L -534.832615 13.596923 
L -548.052923 13.596923 
L -561.273231 13.596923 
L -574.493538 13.596923 
L -587.713846 13.596923 
z
" style="fill:#c7c7c7;"/>
   </g>
   <g id="PathCollection_1"/>
   <g id="PathCollection_2">
    <path clip-path="url(#p1ee2a8506e)" d="M -587.713846 221.816769 
L -567.883385 211.901538 
L -587.713846 201.986308 
z
" style="fill:#dddddd;stroke:#dddddd;stroke-width:0.5;"/>
    <path clip-path="url(#p1ee2a8506e)" d="M -587.713846 89.613692 
L -567.883385 79.698462 
L -587.713846 69.783231 
z
" style="fill:#dddddd;stroke:#dddddd;stroke-width:0.5;"/>
   </g>
   <g id="PathCollection_3">
    <path clip-path="url(#p1ee2a8506e)" d="M -1 278.003077 
L 874.72 278.003077 
L 874.72 278.003077 
" style="fill:none;stroke:#555555;stroke-width:0.5;"/>
    <path clip-path="url(#p1ee2a8506e)" d="M -1 145.8 
L 874.72 145.8 
L 874.72 145.8 
" style="fill:none;stroke:#555555;stroke-width:0.5;"/>
   </g>
   <g id="PathCollection_4">
    <path clip-path="url(#p1ee2a8506e)" d="M -1 145.8 
L 874.72 145.8 
L 874.72 145.8 
" style="fill:none;stroke:#555555;stroke-width:0.5;"/>
    <path clip-path="url(#p1ee2a8506e)" d="M -1 13.596923 
L 874.72 13.596923 
L 874.72 13.596923 
" style="fill:none;stroke:#555555;stroke-width:0.5;"/>
   </g>
   <g id="PatchCollection_1">
    <path clip-path="url(#p1ee2a8506e)" d="M 73.301538 158.13891 
C 76.807605 158.13891 80.170544 156.745935 82.649708 154.266771 
C 85.128871 151.787608 86.521846 148.424669 86.521846 144.918602 
C 86.521846 141.412536 85.128871 138.049596 82.649708 135.570433 
C 80.170544 133.091269 76.807605 131.698294 73.301538 131.698294 
C 69.795472 131.698294 66.432533 133.091269 63.953369 135.570433 
C 61.474206 138.049596 60.081231 141.412536 60.081231 144.918602 
C 60.081231 148.424669 61.474206 151.787608 63.953369 154.266771 
C 66.432533 156.745935 69.795472 158.13891 73.301538 158.13891 
z
" style="fill:#008000;stroke:#008000;"/>
    <path clip-path="url(#p1ee2a8506e)" d="M 180.364615 142.777055 
L 133.098291 159.59005 
L 132.886781 149.015919 
L 73.407294 150.205668 
L 73.195783 139.631537 
L 132.67527 138.441788 
L 132.463759 127.867657 
z
" style="fill:#008000;stroke:#008000;"/>
    <path clip-path="url(#p1ee2a8506e)" d="M 734.316923 169.596554 
L 734.316923 122.003446 
L 800.418462 122.003446 
L 800.418462 169.596554 
z
" style="fill:#f1b514;stroke:#302404;stroke-width:0.5;"/>
    <path clip-path="url(#p1ee2a8506e)" d="M 255.212972 132.579692 
L 255.212972 66.478154 
L 292.229834 66.478154 
L 292.229834 132.579692 
z
" style="fill:#d95558;stroke:#831d20;stroke-width:0.5;"/>
    <path clip-path="url(#p1ee2a8506e)" d="M 255.212972 278.003077 
L 255.212972 172.240615 
L 292.229834 172.240615 
L 292.229834 278.003077 
z
" style="fill:#d95558;stroke:#831d20;stroke-width:0.5;"/>
    <path clip-path="url(#p1ee2a8506e)" d="M 519.619126 79.698462 
L 519.619126 13.596923 
L 556.635988 13.596923 
L 556.635988 79.698462 
z
" style="fill:#d95558;stroke:#831d20;stroke-width:0.5;"/>
    <path clip-path="url(#p1ee2a8506e)" d="M 519.619126 178.850769 
L 519.619126 112.749231 
L 556.635988 112.749231 
L 556.635988 178.850769 
z
" style="fill:#d95558;stroke:#831d20;stroke-width:0.5;"/>
    <path clip-path="url(#p1ee2a8506e)" d="M 519.619126 278.003077 
L 519.619126 211.901538 
L 556.635988 211.901538 
L 556.635988 278.003077 
z
" style="fill:#d95558;stroke:#831d20;stroke-width:0.5;"/>
    <path clip-path="url(#p1ee2a8506e)" d="M 684.872972 99.18143 
L 684.872972 81.367985 
L 708.669526 81.367985 
L 708.669526 99.18143 
z
" style="fill:#d95558;stroke:#831d20;stroke-width:0.5;"/>
    <path clip-path="url(#p1ee2a8506e)" d="M 73.301538 151.528756 
C 75.054572 151.528756 76.736041 150.832268 77.975623 149.592687 
C 79.215205 148.353105 79.911692 146.671635 79.911692 144.918602 
C 79.911692 143.165569 79.215205 141.484099 77.975623 140.244517 
C 76.736041 139.004936 75.054572 138.308448 73.301538 138.308448 
C 71.548505 138.308448 69.867036 139.004936 68.627454 140.244517 
C 67.387872 141.484099 66.691385 143.165569 66.691385 144.918602 
C 66.691385 146.671635 67.387872 148.353105 68.627454 149.592687 
C 69.867036 150.832268 71.548505 151.528756 73.301538 151.528756 
z
" style="fill:#1d7eea;stroke:#00478f;stroke-width:0.5;"/>
   </g>
   <g id="line2d_1">
    <path clip-path="url(#p1ee2a8506e)" d="M 73.301538 144.918602 
" style="fill:none;stroke:#ffd700;stroke-linecap:square;stroke-width:2;"/>
   </g>
   <g id="line2d_2">
    <path clip-path="url(#p1ee2a8506e)" d="M 73.301538 144.918602 
L 85.199815 144.680637 
L 97.098092 144.442671 
L 108.996369 144.204705 
L 120.894646 143.96674 
L 132.792923 143.728774 
" style="fill:none;stroke:#ffd700;stroke-linecap:square;stroke-width:2;"/>
   </g>
   <g id="line2d_3">
    <path clip-path="url(#p1ee2a8506e)" d="M 73.301538 144.918602 
L 85.199815 144.680637 
L 97.096068 144.359606 
L 108.982757 143.789228 
L 120.841818 142.803017 
L 132.637527 141.23496 
" style="fill:none;stroke:#ffd700;stroke-linecap:square;stroke-width:2;"/>
   </g>
   <g id="line2d_4">
    <path clip-path="url(#p1ee2a8506e)" d="M 73.301538 144.918602 
L 85.199815 144.680637 
L 97.099391 144.525751 
L 108.99938 144.620395 
L 120.888391 145.131645 
L 132.737364 146.226808 
" style="fill:none;stroke:#ffd700;stroke-linecap:square;stroke-width:2;"/>
   </g>
   <g id="line2d_5">
    <path clip-path="url(#p1ee2a8506e)" d="M 132.792923 143.728774 
L 144.6912 143.490809 
L 156.589477 143.252843 
L 168.487754 143.014878 
L 180.386031 142.776912 
L 192.284308 142.538947 
" style="fill:none;stroke:#ffd700;stroke-linecap:square;stroke-width:2;"/>
   </g>
   <g id="line2d_6">
    <path clip-path="url(#p1ee2a8506e)" d="M 132.792923 143.728774 
L 144.6912 143.490809 
L 156.587453 143.169778 
L 168.474141 142.5994 
L 180.333203 141.613189 
L 192.128911 140.045133 
" style="fill:none;stroke:#ffd700;stroke-linecap:square;stroke-width:2;"/>
   </g>
   <g id="line2d_7">
    <path clip-path="url(#p1ee2a8506e)" d="M 132.792923 143.728774 
L 144.6912 143.490809 
L 156.590776 143.335923 
L 168.490765 143.430567 
L 180.379775 143.941817 
L 192.228748 145.03698 
" style="fill:none;stroke:#ffd700;stroke-linecap:square;stroke-width:2;"/>
   </g>
   <g id="line2d_8">
    <path clip-path="url(#p1ee2a8506e)" d="M 192.284308 142.538947 
L 204.182585 142.300981 
L 216.080862 142.063016 
L 227.979138 141.82505 
L 239.877415 141.587085 
L 251.775692 141.349119 
" style="fill:none;stroke:#ffd700;stroke-linecap:square;stroke-width:2;"/>
   </g>
   <g id="line2d_9">
    <path clip-path="url(#p1ee2a8506e)" d="M 192.284308 142.538947 
L 204.182585 142.300981 
L 216.078838 141.97995 
L 227.965526 141.409573 
L 239.824587 140.423361 
L 251.620296 138.855305 
" style="fill:none;stroke:#ffd700;stroke-linecap:square;stroke-width:2;"/>
   </g>
   <g id="line2d_10">
    <path clip-path="url(#p1ee2a8506e)" d="M 192.284308 142.538947 
L 204.182585 142.300981 
L 216.08216 142.146096 
L 227.982149 142.24074 
L 239.87116 142.751989 
L 251.720133 143.847152 
" style="fill:none;stroke:#ffd700;stroke-linecap:square;stroke-width:2;"/>
   </g>
   <g id="line2d_11">
    <path clip-path="url(#p1ee2a8506e)" d="M 251.775692 141.349119 
L 263.673969 141.111153 
L 275.572246 140.873188 
L 287.470523 140.635222 
L 299.3688 140.397257 
L 311.267077 140.159291 
" style="fill:none;stroke:#ffd700;stroke-linecap:square;stroke-width:2;"/>
   </g>
   <g id="line2d_12">
    <path clip-path="url(#p1ee2a8506e)" d="M 251.775692 141.349119 
L 263.673969 141.111153 
L 275.570222 140.790122 
L 287.456911 140.219745 
L 299.315972 139.233534 
L 311.111681 137.665477 
" style="fill:none;stroke:#ffd700;stroke-linecap:square;stroke-width:2;"/>
   </g>
   <g id="line2d_13">
    <path clip-path="url(#p1ee2a8506e)" d="M 251.775692 141.349119 
L 263.673969 141.111153 
L 275.573545 140.956268 
L 287.473534 141.050912 
L 299.362544 141.562162 
L 311.211518 142.657324 
" style="fill:none;stroke:#ffd700;stroke-linecap:square;stroke-width:2;"/>
   </g>
   <g id="line2d_14">
    <path clip-path="url(#p1ee2a8506e)" d="M 311.267077 140.159291 
L 323.165354 139.921326 
L 335.063631 139.68336 
L 346.961908 139.445395 
L 358.860185 139.207429 
L 370.758462 138.969464 
" style="fill:none;stroke:#ffd700;stroke-linecap:square;stroke-width:2;"/>
   </g>
   <g id="line2d_15">
    <path clip-path="url(#p1ee2a8506e)" d="M 311.267077 140.159291 
L 323.165354 139.921326 
L 335.061607 139.600295 
L 346.948295 139.029917 
L 358.807357 138.043706 
L 370.603065 136.47565 
" style="fill:none;stroke:#ffd700;stroke-linecap:square;stroke-width:2;"/>
   </g>
   <g id="line2d_16">
    <path clip-path="url(#p1ee2a8506e)" d="M 311.267077 140.159291 
L 323.165354 139.921326 
L 335.06493 139.76644 
L 346.964919 139.861084 
L 358.853929 140.372334 
L 370.702902 141.467497 
" style="fill:none;stroke:#ffd700;stroke-linecap:square;stroke-width:2;"/>
   </g>
   <g id="line2d_17">
    <path clip-path="url(#p1ee2a8506e)" d="M 370.758462 138.969464 
L 382.656738 138.731498 
L 394.555015 138.493533 
L 406.453292 138.255567 
L 418.351569 138.017601 
L 430.249846 137.779636 
" style="fill:none;stroke:#ffd700;stroke-linecap:square;stroke-width:2;"/>
   </g>
   <g id="line2d_18">
    <path clip-path="url(#p1ee2a8506e)" d="M 370.758462 138.969464 
L 382.656738 138.731498 
L 394.552991 138.410467 
L 406.43968 137.84009 
L 418.298741 136.853878 
L 430.09445 135.285822 
" style="fill:none;stroke:#ffd700;stroke-linecap:square;stroke-width:2;"/>
   </g>
   <g id="line2d_19">
    <path clip-path="url(#p1ee2a8506e)" d="M 370.758462 138.969464 
L 382.656738 138.731498 
L 394.556314 138.576613 
L 406.456303 138.671256 
L 418.345314 139.182506 
L 430.194287 140.277669 
" style="fill:none;stroke:#ffd700;stroke-linecap:square;stroke-width:2;"/>
   </g>
   <g id="line2d_20">
    <path clip-path="url(#p1ee2a8506e)" d="M 430.249846 137.779636 
L 442.148123 137.54167 
L 454.0464 137.303705 
L 465.944677 137.065739 
L 477.842954 136.827774 
L 489.741231 136.589808 
" style="fill:none;stroke:#ffd700;stroke-linecap:square;stroke-width:2;"/>
   </g>
   <g id="line2d_21">
    <path clip-path="url(#p1ee2a8506e)" d="M 430.249846 137.779636 
L 442.148123 137.54167 
L 454.044376 137.220639 
L 465.931064 136.650262 
L 477.790126 135.664051 
L 489.585835 134.095994 
" style="fill:none;stroke:#ffd700;stroke-linecap:square;stroke-width:2;"/>
   </g>
   <g id="line2d_22">
    <path clip-path="url(#p1ee2a8506e)" d="M 430.249846 137.779636 
L 442.148123 137.54167 
L 454.047699 137.386785 
L 465.947688 137.481429 
L 477.836698 137.992679 
L 489.685672 139.087841 
" style="fill:none;stroke:#ffd700;stroke-linecap:square;stroke-width:2;"/>
   </g>
   <g id="line2d_23">
    <path clip-path="url(#p1ee2a8506e)" d="M 489.685672 139.087841 
L 501.438216 140.932403 
L 513.050643 143.519384 
L 524.522325 146.674355 
L 535.876851 150.229183 
L 547.154555 154.021368 
" style="fill:none;stroke:#ffd700;stroke-dasharray:7.4,3.2;stroke-dashoffset:0;stroke-width:2;"/>
   </g>
   <g id="line2d_24">
    <path clip-path="url(#p1ee2a8506e)" d="M 489.685672 139.087841 
L 501.438216 140.932403 
L 513.030985 143.603063 
L 524.405987 147.086462 
L 535.506317 151.365174 
L 546.276448 156.417796 
" style="fill:none;stroke:#ffd700;stroke-dasharray:7.4,3.2;stroke-dashoffset:0;stroke-width:2;"/>
   </g>
   <g id="line2d_25">
    <path clip-path="url(#p1ee2a8506e)" d="M 489.741231 136.589808 
L 501.639508 136.351843 
L 513.537785 136.113877 
L 525.436062 135.875912 
L 537.334338 135.637946 
L 549.232615 135.399981 
" style="fill:none;stroke:#ffd700;stroke-dasharray:7.4,3.2;stroke-dashoffset:0;stroke-width:2;"/>
   </g>
   <g id="line2d_26">
    <path clip-path="url(#p1ee2a8506e)" d="M 489.741231 136.589808 
L 501.639508 136.351843 
L 513.535761 136.030812 
L 525.422449 135.460434 
L 537.28151 134.474223 
L 549.077219 132.906166 
" style="fill:none;stroke:#ffd700;stroke-dasharray:7.4,3.2;stroke-dashoffset:0;stroke-width:2;"/>
   </g>
   <g id="line2d_27">
    <path clip-path="url(#p1ee2a8506e)" d="M 489.741231 136.589808 
L 501.639508 136.351843 
L 513.539084 136.196957 
L 525.439072 136.291601 
L 537.328083 136.802851 
L 549.177056 137.898014 
" style="fill:none;stroke:#ffd700;stroke-dasharray:7.4,3.2;stroke-dashoffset:0;stroke-width:2;"/>
   </g>
   <g id="line2d_28">
    <path clip-path="url(#p1ee2a8506e)" d="M 489.585835 134.095994 
L 501.255216 131.782932 
L 512.754902 128.733646 
L 524.091243 125.122455 
L 535.294532 121.11641 
L 546.411567 116.87627 
" style="fill:none;stroke:#ffd700;stroke-dasharray:7.4,3.2;stroke-dashoffset:0;stroke-width:2;"/>
   </g>
   <g id="line2d_29">
    <path clip-path="url(#p1ee2a8506e)" d="M 489.585835 134.095994 
L 501.255216 131.782932 
L 512.731914 128.650821 
L 523.958518 124.71533 
L 534.878866 119.996145 
L 545.438331 114.516874 
" style="fill:none;stroke:#ffd700;stroke-dasharray:7.4,3.2;stroke-dashoffset:0;stroke-width:2;"/>
   </g>
   <g id="line2d_30">
    <path clip-path="url(#p1ee2a8506e)" d="M 430.194287 140.277669 
L 441.946832 142.12223 
L 453.559259 144.709212 
L 465.030941 147.864182 
L 476.385467 151.41901 
L 487.66317 155.211196 
" style="fill:none;stroke:#ffd700;stroke-linecap:square;stroke-width:2;"/>
   </g>
   <g id="line2d_31">
    <path clip-path="url(#p1ee2a8506e)" d="M 430.194287 140.277669 
L 441.946832 142.12223 
L 453.539601 144.79289 
L 464.914602 148.276289 
L 476.014932 152.555002 
L 486.785064 157.607624 
" style="fill:none;stroke:#ffd700;stroke-linecap:square;stroke-width:2;"/>
   </g>
   <g id="line2d_32">
    <path clip-path="url(#p1ee2a8506e)" d="M 487.66317 155.211196 
L 498.914191 159.082053 
L 510.165211 162.95291 
L 521.416232 166.823767 
L 532.667252 170.694624 
L 543.918272 174.565481 
" style="fill:none;stroke:#ffd700;stroke-dasharray:7.4,3.2;stroke-dashoffset:0;stroke-width:2;"/>
   </g>
   <g id="line2d_33">
    <path clip-path="url(#p1ee2a8506e)" d="M 487.66317 155.211196 
L 498.914191 159.082053 
L 510.191894 162.874238 
L 521.546421 166.429066 
L 533.018103 169.584037 
L 544.630529 172.171018 
" style="fill:none;stroke:#ffd700;stroke-dasharray:7.4,3.2;stroke-dashoffset:0;stroke-width:2;"/>
   </g>
   <g id="line2d_34">
    <path clip-path="url(#p1ee2a8506e)" d="M 487.66317 155.211196 
L 498.914191 159.082053 
L 510.137842 163.031346 
L 521.276018 167.215018 
L 532.260532 171.785989 
L 543.006536 176.891313 
" style="fill:none;stroke:#ffd700;stroke-dasharray:7.4,3.2;stroke-dashoffset:0;stroke-width:2;"/>
   </g>
   <g id="line2d_35">
    <path clip-path="url(#p1ee2a8506e)" d="M 486.785064 157.607624 
L 497.171119 163.40888 
L 507.168568 169.858062 
L 516.837244 176.791318 
L 526.257512 184.059096 
L 535.523497 191.522928 
" style="fill:none;stroke:#ffd700;stroke-linecap:square;stroke-width:2;"/>
   </g>
   <g id="line2d_36">
    <path clip-path="url(#p1ee2a8506e)" d="M 486.785064 157.607624 
L 497.171119 163.40888 
L 507.121142 169.929751 
L 516.58536 177.137615 
L 525.516428 184.996415 
L 533.869669 193.466839 
" style="fill:none;stroke:#ffd700;stroke-linecap:square;stroke-width:2;"/>
   </g>
   <g id="line2d_37">
    <path clip-path="url(#p1ee2a8506e)" d="M 535.523497 191.522928 
L 544.737201 199.051319 
L 553.950904 206.57971 
L 563.164607 214.1081 
L 572.378311 221.636491 
L 581.592014 229.164881 
" style="fill:none;stroke:#ffd700;stroke-linecap:square;stroke-width:2;"/>
   </g>
   <g id="line2d_38">
    <path clip-path="url(#p1ee2a8506e)" d="M 535.523497 191.522928 
L 544.737201 199.051319 
L 554.003186 206.515151 
L 563.423455 213.78293 
L 573.09213 220.716186 
L 583.089579 227.165367 
" style="fill:none;stroke:#ffd700;stroke-linecap:square;stroke-width:2;"/>
   </g>
   <g id="line2d_39">
    <path clip-path="url(#p1ee2a8506e)" d="M 535.523497 191.522928 
L 544.737201 199.051319 
L 553.898061 206.643809 
L 562.897551 214.426563 
L 571.618739 222.519412 
L 579.931091 231.030918 
" style="fill:none;stroke:#ffd700;stroke-linecap:square;stroke-width:2;"/>
   </g>
   <g id="line2d_40">
    <path clip-path="url(#p1ee2a8506e)" d="M 533.869669 193.466839 
L 541.603296 202.506515 
L 548.747944 212.019397 
L 555.416497 221.872505 
L 561.736147 231.953382 
L 567.843156 242.164734 
" style="fill:none;stroke:#ffd700;stroke-dasharray:7.4,3.2;stroke-dashoffset:0;stroke-width:2;"/>
   </g>
   <g id="line2d_41">
    <path clip-path="url(#p1ee2a8506e)" d="M 533.869669 193.466839 
L 541.603296 202.506515 
L 548.678623 212.07022 
L 555.060255 222.110115 
L 560.71627 232.575975 
L 565.618372 243.415445 
" style="fill:none;stroke:#ffd700;stroke-dasharray:7.4,3.2;stroke-dashoffset:0;stroke-width:2;"/>
   </g>
   <g id="line2d_42">
    <path clip-path="url(#p1ee2a8506e)" d="M 583.089579 227.165367 
L 593.475635 232.966623 
L 604.209595 238.097221 
L 615.183322 242.694028 
L 626.311621 246.9039 
L 637.525948 250.879593 
" style="fill:none;stroke:#ffd700;stroke-linecap:square;stroke-width:2;"/>
   </g>
   <g id="line2d_43">
    <path clip-path="url(#p1ee2a8506e)" d="M 583.089579 227.165367 
L 593.475635 232.966623 
L 604.245766 238.019245 
L 615.346096 242.297958 
L 626.721097 245.781357 
L 638.313866 248.452017 
" style="fill:none;stroke:#ffd700;stroke-linecap:square;stroke-width:2;"/>
   </g>
   <g id="line2d_44">
    <path clip-path="url(#p1ee2a8506e)" d="M 581.592014 229.164881 
L 590.805717 236.693272 
L 600.019421 244.221662 
L 609.233124 251.750053 
L 618.446827 259.278444 
L 627.660531 266.806834 
" style="fill:none;stroke:#ffd700;stroke-linecap:square;stroke-width:2;"/>
   </g>
   <g id="line2d_45">
    <path clip-path="url(#p1ee2a8506e)" d="M 581.592014 229.164881 
L 590.805717 236.693272 
L 600.071703 244.157104 
L 609.491971 251.424882 
L 619.160647 258.358138 
L 629.158096 264.80732 
" style="fill:none;stroke:#ffd700;stroke-linecap:square;stroke-width:2;"/>
   </g>
   <g id="line2d_46">
    <path clip-path="url(#p1ee2a8506e)" d="M 581.592014 229.164881 
L 590.805717 236.693272 
L 599.966577 244.285762 
L 608.966067 252.068516 
L 617.687255 260.161365 
L 625.999607 268.672871 
" style="fill:none;stroke:#ffd700;stroke-linecap:square;stroke-width:2;"/>
   </g>
   <g id="line2d_47">
    <path clip-path="url(#p1ee2a8506e)" d="M 638.313866 248.452017 
L 650.066411 250.296578 
L 661.913018 251.39149 
L 673.799653 251.902606 
L 685.697263 251.9972 
L 697.594459 251.842313 
" style="fill:none;stroke:#ffd700;stroke-linecap:square;stroke-width:2;"/>
   </g>
   <g id="line2d_48">
    <path clip-path="url(#p1ee2a8506e)" d="M 638.313866 248.452017 
L 650.066411 250.296578 
L 661.919941 251.305813 
L 673.815159 251.474674 
L 685.692559 250.802315 
L 697.492728 249.292099 
" style="fill:none;stroke:#ffd700;stroke-linecap:square;stroke-width:2;"/>
   </g>
   <g id="line2d_49">
    <path clip-path="url(#p1ee2a8506e)" d="M 697.492728 249.292099 
L 709.156634 246.951583 
L 720.649113 243.875245 
L 731.976924 240.237386 
L 743.170754 236.204989 
L 754.277781 231.9387 
" style="fill:none;stroke:#ffd700;stroke-linecap:square;stroke-width:2;"/>
   </g>
   <g id="line2d_50">
    <path clip-path="url(#p1ee2a8506e)" d="M 697.492728 249.292099 
L 709.156634 246.951583 
L 720.625929 243.792474 
L 731.843241 239.830575 
L 742.752454 235.085705 
L 753.298996 229.5816 
" style="fill:none;stroke:#ffd700;stroke-linecap:square;stroke-width:2;"/>
   </g>
   <g id="line2d_51">
    <path clip-path="url(#p1ee2a8506e)" d="M 753.298996 229.5816 
L 763.430109 223.345795 
L 773.145531 216.4791 
L 782.511978 209.142684 
L 791.616077 201.482563 
L 800.55773 193.633098 
" style="fill:none;stroke:#ffd700;stroke-linecap:square;stroke-width:2;"/>
   </g>
   <g id="line2d_52">
    <path clip-path="url(#p1ee2a8506e)" d="M 753.298996 229.5816 
L 763.430109 223.345795 
L 773.095112 216.409483 
L 782.245658 208.807363 
L 790.835971 200.577463 
L 798.823078 191.760954 
" style="fill:none;stroke:#ffd700;stroke-linecap:square;stroke-width:2;"/>
   </g>
   <g id="line2d_53">
    <path clip-path="url(#p1ee2a8506e)" d="M 579.931091 231.030918 
L 587.685969 240.052369 
L 594.852983 249.548413 
L 601.544704 259.3858 
L 607.888059 269.451778 
L 614.01908 279.648731 
" style="fill:none;stroke:#ffd700;stroke-dasharray:7.4,3.2;stroke-dashoffset:0;stroke-width:2;"/>
   </g>
   <g id="line2d_54">
    <path clip-path="url(#p1ee2a8506e)" d="M 579.931091 231.030918 
L 587.685969 240.052369 
L 594.783781 249.599399 
L 601.189022 259.624249 
L 606.869649 270.076769 
L 611.797246 280.904674 
" style="fill:none;stroke:#ffd700;stroke-dasharray:7.4,3.2;stroke-dashoffset:0;stroke-width:2;"/>
   </g>
   <g id="line2d_55">
    <path clip-path="url(#p1ee2a8506e)" d="M 754.277781 231.9387 
L 765.354818 227.59494 
L 776.431855 223.25118 
L 787.508891 218.90742 
L 798.585928 214.563659 
L 809.662965 210.219899 
" style="fill:none;stroke:#ffd700;stroke-linecap:square;stroke-width:2;"/>
   </g>
   <g id="line2d_56">
    <path clip-path="url(#p1ee2a8506e)" d="M 754.277781 231.9387 
L 765.354818 227.59494 
L 776.401189 223.173973 
L 787.352237 218.522456 
L 798.133364 213.490493 
L 808.653569 207.934756 
" style="fill:none;stroke:#ffd700;stroke-linecap:square;stroke-width:2;"/>
   </g>
   <g id="line2d_57">
    <path clip-path="url(#p1ee2a8506e)" d="M 754.277781 231.9387 
L 765.354818 227.59494 
L 776.461845 223.328651 
L 787.655675 219.296254 
L 798.983487 215.658395 
L 810.475966 212.582057 
" style="fill:none;stroke:#ffd700;stroke-linecap:square;stroke-width:2;"/>
   </g>
   <g id="line2d_58">
    <path clip-path="url(#p1ee2a8506e)" d="M 697.594459 251.842313 
L 709.492736 251.604348 
L 721.391013 251.366382 
L 733.28929 251.128417 
L 745.187567 250.890451 
L 757.085844 250.652486 
" style="fill:none;stroke:#ffd700;stroke-linecap:square;stroke-width:2;"/>
   </g>
   <g id="line2d_59">
    <path clip-path="url(#p1ee2a8506e)" d="M 697.594459 251.842313 
L 709.492736 251.604348 
L 721.388989 251.283317 
L 733.275678 250.712939 
L 745.134739 249.726728 
L 756.930448 248.158672 
" style="fill:none;stroke:#ffd700;stroke-linecap:square;stroke-width:2;"/>
   </g>
   <g id="line2d_60">
    <path clip-path="url(#p1ee2a8506e)" d="M 697.594459 251.842313 
L 709.492736 251.604348 
L 721.392312 251.449462 
L 733.292301 251.544106 
L 745.181311 252.055356 
L 757.030285 253.150519 
" style="fill:none;stroke:#ffd700;stroke-linecap:square;stroke-width:2;"/>
   </g>
   <g id="line2d_61">
    <path clip-path="url(#p1ee2a8506e)" d="M 637.525948 250.879593 
L 648.767829 254.776915 
L 660.009709 258.674238 
L 671.251589 262.57156 
L 682.49347 266.468882 
L 693.73535 270.366205 
" style="fill:none;stroke:#ffd700;stroke-linecap:square;stroke-width:2;"/>
   </g>
   <g id="line2d_62">
    <path clip-path="url(#p1ee2a8506e)" d="M 637.525948 250.879593 
L 648.767829 254.776915 
L 660.036577 258.595629 
L 671.382707 262.177167 
L 682.846933 265.359124 
L 694.45324 267.973425 
" style="fill:none;stroke:#ffd700;stroke-linecap:square;stroke-width:2;"/>
   </g>
   <g id="line2d_63">
    <path clip-path="url(#p1ee2a8506e)" d="M 637.525948 250.879593 
L 648.767829 254.776915 
L 659.982156 258.752609 
L 671.110455 262.96248 
L 682.084182 267.559288 
L 692.818143 272.689885 
" style="fill:none;stroke:#ffd700;stroke-linecap:square;stroke-width:2;"/>
   </g>
   <g id="line2d_64">
    <path clip-path="url(#p1ee2a8506e)" d="M 798.823078 191.760954 
L 806.167025 182.401939 
L 812.902486 172.595079 
L 819.147872 162.468457 
L 825.035026 152.129043 
L 830.704203 141.668274 
" style="fill:none;stroke:#ffd700;stroke-linecap:square;stroke-width:2;"/>
   </g>
   <g id="line2d_65">
    <path clip-path="url(#p1ee2a8506e)" d="M 798.823078 191.760954 
L 806.167025 182.401939 
L 812.831074 172.547237 
L 818.781889 162.246143 
L 823.989701 151.55019 
L 828.428459 140.512883 
" style="fill:none;stroke:#ffd700;stroke-linecap:square;stroke-width:2;"/>
   </g>
   <g id="line2d_66">
    <path clip-path="url(#p1ee2a8506e)" d="M 800.55773 193.633098 
L 809.444415 185.721345 
L 818.331099 177.809592 
L 827.217784 169.89784 
L 836.104468 161.986087 
L 844.991153 154.074334 
" style="fill:none;stroke:#ffd700;stroke-linecap:square;stroke-width:2;"/>
   </g>
   <g id="line2d_67">
    <path clip-path="url(#p1ee2a8506e)" d="M 800.55773 193.633098 
L 809.444415 185.721345 
L 818.275589 177.747787 
L 826.937483 169.59097 
L 835.308194 161.136118 
L 843.25271 152.280295 
" style="fill:none;stroke:#ffd700;stroke-linecap:square;stroke-width:2;"/>
   </g>
   <g id="line2d_68">
    <path clip-path="url(#p1ee2a8506e)" d="M 800.55773 193.633098 
L 809.444415 185.721345 
L 818.386068 177.87188 
L 827.490167 170.211759 
L 836.856614 162.875343 
L 846.572036 156.008648 
" style="fill:none;stroke:#ffd700;stroke-linecap:square;stroke-width:2;"/>
   </g>
   <g id="line2d_69">
    <path clip-path="url(#p1ee2a8506e)" d="M 430.09445 135.285822 
L 441.763831 132.97276 
L 453.263518 129.923474 
L 464.599858 126.312282 
L 475.803147 122.306238 
L 486.920183 118.066098 
" style="fill:none;stroke:#ffd700;stroke-linecap:square;stroke-width:2;"/>
   </g>
   <g id="line2d_70">
    <path clip-path="url(#p1ee2a8506e)" d="M 430.09445 135.285822 
L 441.763831 132.97276 
L 453.240529 129.840649 
L 464.467133 125.905157 
L 475.387481 121.185972 
L 485.946947 115.706701 
" style="fill:none;stroke:#ffd700;stroke-linecap:square;stroke-width:2;"/>
   </g>
   <g id="line2d_71">
    <path clip-path="url(#p1ee2a8506e)" d="M 486.920183 118.066098 
L 498.00741 113.748416 
L 509.094638 109.430735 
L 520.181866 105.113053 
L 531.269094 100.795372 
L 542.356322 96.47769 
" style="fill:none;stroke:#ffd700;stroke-linecap:square;stroke-width:2;"/>
   </g>
   <g id="line2d_72">
    <path clip-path="url(#p1ee2a8506e)" d="M 486.920183 118.066098 
L 498.00741 113.748416 
L 509.064155 109.353456 
L 520.026118 104.727722 
L 530.819056 99.721144 
L 541.352306 94.190178 
" style="fill:none;stroke:#ffd700;stroke-linecap:square;stroke-width:2;"/>
   </g>
   <g id="line2d_73">
    <path clip-path="url(#p1ee2a8506e)" d="M 486.920183 118.066098 
L 498.00741 113.748416 
L 509.124446 109.508277 
L 520.327735 105.502232 
L 531.664075 101.89104 
L 543.163762 98.841755 
" style="fill:none;stroke:#ffd700;stroke-linecap:square;stroke-width:2;"/>
   </g>
   <g id="line2d_74">
    <path clip-path="url(#p1ee2a8506e)" d="M 543.163762 98.841755 
L 554.833143 96.528693 
L 566.626489 94.960918 
L 578.483177 93.974872 
L 590.367487 93.404577 
L 602.261361 93.083579 
" style="fill:none;stroke:#ffd700;stroke-linecap:square;stroke-width:2;"/>
   </g>
   <g id="line2d_75">
    <path clip-path="url(#p1ee2a8506e)" d="M 543.163762 98.841755 
L 554.833143 96.528693 
L 566.636833 95.04625 
L 578.515783 94.401843 
L 590.41057 94.598695 
L 602.261692 95.635821 
" style="fill:none;stroke:#ffd700;stroke-linecap:square;stroke-width:2;"/>
   </g>
   <g id="line2d_76">
    <path clip-path="url(#p1ee2a8506e)" d="M 602.261692 95.635821 
L 614.009864 97.508033 
L 625.616171 100.122334 
L 637.080397 103.304291 
L 648.426526 106.885829 
L 659.695275 110.704543 
" style="fill:none;stroke:#ffd700;stroke-linecap:square;stroke-width:2;"/>
   </g>
   <g id="line2d_77">
    <path clip-path="url(#p1ee2a8506e)" d="M 602.261692 95.635821 
L 614.009864 97.508033 
L 625.596316 100.205966 
L 636.963088 103.716123 
L 648.053319 108.020945 
L 658.811531 113.098898 
" style="fill:none;stroke:#ffd700;stroke-linecap:square;stroke-width:2;"/>
   </g>
   <g id="line2d_78">
    <path clip-path="url(#p1ee2a8506e)" d="M 659.695275 110.704543 
L 670.937155 114.601865 
L 682.179035 118.499188 
L 693.420915 122.39651 
L 704.662796 126.293832 
L 715.904676 130.191154 
" style="fill:none;stroke:#ffd700;stroke-linecap:square;stroke-width:2;"/>
   </g>
   <g id="line2d_79">
    <path clip-path="url(#p1ee2a8506e)" d="M 659.695275 110.704543 
L 670.937155 114.601865 
L 682.205903 118.420579 
L 693.552033 122.002117 
L 705.016259 125.184074 
L 716.622566 127.798375 
" style="fill:none;stroke:#ffd700;stroke-linecap:square;stroke-width:2;"/>
   </g>
   <g id="line2d_80">
    <path clip-path="url(#p1ee2a8506e)" d="M 659.695275 110.704543 
L 670.937155 114.601865 
L 682.151482 118.577559 
L 693.279781 122.78743 
L 704.253509 127.384237 
L 714.987469 132.514835 
" style="fill:none;stroke:#ffd700;stroke-linecap:square;stroke-width:2;"/>
   </g>
   <g id="line2d_81">
    <path clip-path="url(#p1ee2a8506e)" d="M 715.904676 130.191154 
L 727.146556 134.088477 
L 738.388437 137.985799 
L 749.630317 141.883121 
L 760.872197 145.780444 
L 772.114077 149.677766 
" style="fill:none;stroke:#008000;stroke-linecap:square;stroke-width:3;"/>
   </g>
   <g id="line2d_82">
    <path clip-path="url(#p1ee2a8506e)" d="M 73.301538 144.918602 
" style="fill:none;stroke:#008000;stroke-linecap:square;stroke-width:3;"/>
   </g>
   <g id="line2d_83">
    <path clip-path="url(#p1ee2a8506e)" d="M 73.301538 144.918602 
L 85.199815 144.680637 
L 97.098092 144.442671 
L 108.996369 144.204705 
L 120.894646 143.96674 
L 132.792923 143.728774 
" style="fill:none;stroke:#008000;stroke-linecap:square;stroke-width:3;"/>
   </g>
   <g id="line2d_84">
    <path clip-path="url(#p1ee2a8506e)" d="M 132.792923 143.728774 
L 144.6912 143.490809 
L 156.589477 143.252843 
L 168.487754 143.014878 
L 180.386031 142.776912 
L 192.284308 142.538947 
" style="fill:none;stroke:#008000;stroke-linecap:square;stroke-width:3;"/>
   </g>
   <g id="line2d_85">
    <path clip-path="url(#p1ee2a8506e)" d="M 192.284308 142.538947 
L 204.182585 142.300981 
L 216.080862 142.063016 
L 227.979138 141.82505 
L 239.877415 141.587085 
L 251.775692 141.349119 
" style="fill:none;stroke:#008000;stroke-linecap:square;stroke-width:3;"/>
   </g>
   <g id="line2d_86">
    <path clip-path="url(#p1ee2a8506e)" d="M 251.775692 141.349119 
L 263.673969 141.111153 
L 275.572246 140.873188 
L 287.470523 140.635222 
L 299.3688 140.397257 
L 311.267077 140.159291 
" style="fill:none;stroke:#008000;stroke-linecap:square;stroke-width:3;"/>
   </g>
   <g id="line2d_87">
    <path clip-path="url(#p1ee2a8506e)" d="M 311.267077 140.159291 
L 323.165354 139.921326 
L 335.063631 139.68336 
L 346.961908 139.445395 
L 358.860185 139.207429 
L 370.758462 138.969464 
" style="fill:none;stroke:#008000;stroke-linecap:square;stroke-width:3;"/>
   </g>
   <g id="line2d_88">
    <path clip-path="url(#p1ee2a8506e)" d="M 370.758462 138.969464 
L 382.656738 138.731498 
L 394.552991 138.410467 
L 406.43968 137.84009 
L 418.298741 136.853878 
L 430.09445 135.285822 
" style="fill:none;stroke:#008000;stroke-linecap:square;stroke-width:3;"/>
   </g>
   <g id="line2d_89">
    <path clip-path="url(#p1ee2a8506e)" d="M 430.09445 135.285822 
L 441.763831 132.97276 
L 453.263518 129.923474 
L 464.599858 126.312282 
L 475.803147 122.306238 
L 486.920183 118.066098 
" style="fill:none;stroke:#008000;stroke-linecap:square;stroke-width:3;"/>
   </g>
   <g id="line2d_90">
    <path clip-path="url(#p1ee2a8506e)" d="M 486.920183 118.066098 
L 498.00741 113.748416 
L 509.124446 109.508277 
L 520.327735 105.502232 
L 531.664075 101.89104 
L 543.163762 98.841755 
" style="fill:none;stroke:#008000;stroke-linecap:square;stroke-width:3;"/>
   </g>
   <g id="line2d_91">
    <path clip-path="url(#p1ee2a8506e)" d="M 543.163762 98.841755 
L 554.833143 96.528693 
L 566.636833 95.04625 
L 578.515783 94.401843 
L 590.41057 94.598695 
L 602.261692 95.635821 
" style="fill:none;stroke:#008000;stroke-linecap:square;stroke-width:3;"/>
   </g>
   <g id="line2d_92">
    <path clip-path="url(#p1ee2a8506e)" d="M 602.261692 95.635821 
L 614.009864 97.508033 
L 625.616171 100.122334 
L 637.080397 103.304291 
L 648.426526 106.885829 
L 659.695275 110.704543 
" style="fill:none;stroke:#008000;stroke-linecap:square;stroke-width:3;"/>
   </g>
   <g id="line2d_93">
    <path clip-path="url(#p1ee2a8506e)" d="M 659.695275 110.704543 
L 670.937155 114.601865 
L 682.179035 118.499188 
L 693.420915 122.39651 
L 704.662796 126.293832 
L 715.904676 130.191154 
" style="fill:none;stroke:#008000;stroke-linecap:square;stroke-width:3;"/>
   </g>
   <g id="line2d_94">
    <path clip-path="url(#p1ee2a8506e)" d="M 715.904676 130.191154 
L 727.146556 134.088477 
L 738.388437 137.985799 
L 749.630317 141.883121 
L 760.872197 145.780444 
L 772.114077 149.677766 
" style="fill:none;stroke:#008000;stroke-linecap:square;stroke-width:3;"/>
   </g>
   <g id="line2d_95">
    <path clip-path="url(#p1ee2a8506e)" d="M 73.301538 144.918602 
" style="fill:none;stroke:#ffd700;stroke-linecap:square;stroke-width:1.5;"/>
    <defs>
     <path d="M 0 4 
C 1.060812 4 2.078319 3.578535 2.828427 2.828427 
C 3.578535 2.078319 4 1.060812 4 0 
C 4 -1.060812 3.578535 -2.078319 2.828427 -2.828427 
C 2.078319 -3.578535 1.060812 -4 0 -4 
C -1.060812 -4 -2.078319 -3.578535 -2.828427 -2.828427 
C -3.578535 -2.078319 -4 -1.060812 -4 0 
C -4 1.060812 -3.578535 2.078319 -2.828427 2.828427 
C -2.078319 3.578535 -1.060812 4 0 4 
z
" id="mf0232fb59e" style="stroke:#ffd700;"/>
    </defs>
    <g clip-path="url(#p1ee2a8506e)">
     <use style="fill:#ffd700;stroke:#ffd700;" x="73.301538" xlink:href="#mf0232fb59e" y="144.918602"/>
    </g>
   </g>
   <g id="line2d_96">
    <path clip-path="url(#p1ee2a8506e)" d="M 132.792923 143.728774 
" style="fill:none;stroke:#ffd700;stroke-linecap:square;stroke-width:1.5;"/>
    <g clip-path="url(#p1ee2a8506e)">
     <use style="fill:#ffd700;stroke:#ffd700;" x="132.792923" xlink:href="#mf0232fb59e" y="143.728774"/>
    </g>
   </g>
   <g id="line2d_97">
    <path clip-path="url(#p1ee2a8506e)" d="M 132.637527 141.23496 
" style="fill:none;stroke:#ffd700;stroke-linecap:square;stroke-width:1.5;"/>
    <g clip-path="url(#p1ee2a8506e)">
     <use style="fill:#ffd700;stroke:#ffd700;" x="132.637527" xlink:href="#mf0232fb59e" y="141.23496"/>
    </g>
   </g>
   <g id="line2d_98">
    <path clip-path="url(#p1ee2a8506e)" d="M 132.737364 146.226808 
" style="fill:none;stroke:#ffd700;stroke-linecap:square;stroke-width:1.5;"/>
    <g clip-path="url(#p1ee2a8506e)">
     <use style="fill:#ffd700;stroke:#ffd700;" x="132.737364" xlink:href="#mf0232fb59e" y="146.226808"/>
    </g>
   </g>
   <g id="line2d_99">
    <path clip-path="url(#p1ee2a8506e)" d="M 192.284308 142.538947 
" style="fill:none;stroke:#ffd700;stroke-linecap:square;stroke-width:1.5;"/>
    <g clip-path="url(#p1ee2a8506e)">
     <use style="fill:#ffd700;stroke:#ffd700;" x="192.284308" xlink:href="#mf0232fb59e" y="142.538947"/>
    </g>
   </g>
   <g id="line2d_100">
    <path clip-path="url(#p1ee2a8506e)" d="M 192.128911 140.045133 
" style="fill:none;stroke:#ffd700;stroke-linecap:square;stroke-width:1.5;"/>
    <g clip-path="url(#p1ee2a8506e)">
     <use style="fill:#ffd700;stroke:#ffd700;" x="192.128911" xlink:href="#mf0232fb59e" y="140.045133"/>
    </g>
   </g>
   <g id="line2d_101">
    <path clip-path="url(#p1ee2a8506e)" d="M 192.228748 145.03698 
" style="fill:none;stroke:#ffd700;stroke-linecap:square;stroke-width:1.5;"/>
    <g clip-path="url(#p1ee2a8506e)">
     <use style="fill:#ffd700;stroke:#ffd700;" x="192.228748" xlink:href="#mf0232fb59e" y="145.03698"/>
    </g>
   </g>
   <g id="line2d_102">
    <path clip-path="url(#p1ee2a8506e)" d="M 251.775692 141.349119 
" style="fill:none;stroke:#ffd700;stroke-linecap:square;stroke-width:1.5;"/>
    <g clip-path="url(#p1ee2a8506e)">
     <use style="fill:#ffd700;stroke:#ffd700;" x="251.775692" xlink:href="#mf0232fb59e" y="141.349119"/>
    </g>
   </g>
   <g id="line2d_103">
    <path clip-path="url(#p1ee2a8506e)" d="M 251.620296 138.855305 
" style="fill:none;stroke:#ffd700;stroke-linecap:square;stroke-width:1.5;"/>
    <g clip-path="url(#p1ee2a8506e)">
     <use style="fill:#ffd700;stroke:#ffd700;" x="251.620296" xlink:href="#mf0232fb59e" y="138.855305"/>
    </g>
   </g>
   <g id="line2d_104">
    <path clip-path="url(#p1ee2a8506e)" d="M 251.720133 143.847152 
" style="fill:none;stroke:#ffd700;stroke-linecap:square;stroke-width:1.5;"/>
    <g clip-path="url(#p1ee2a8506e)">
     <use style="fill:#ffd700;stroke:#ffd700;" x="251.720133" xlink:href="#mf0232fb59e" y="143.847152"/>
    </g>
   </g>
   <g id="line2d_105">
    <path clip-path="url(#p1ee2a8506e)" d="M 311.267077 140.159291 
" style="fill:none;stroke:#ffd700;stroke-linecap:square;stroke-width:1.5;"/>
    <g clip-path="url(#p1ee2a8506e)">
     <use style="fill:#ffd700;stroke:#ffd700;" x="311.267077" xlink:href="#mf0232fb59e" y="140.159291"/>
    </g>
   </g>
   <g id="line2d_106">
    <path clip-path="url(#p1ee2a8506e)" d="M 311.111681 137.665477 
" style="fill:none;stroke:#ffd700;stroke-linecap:square;stroke-width:1.5;"/>
    <g clip-path="url(#p1ee2a8506e)">
     <use style="fill:#ffd700;stroke:#ffd700;" x="311.111681" xlink:href="#mf0232fb59e" y="137.665477"/>
    </g>
   </g>
   <g id="line2d_107">
    <path clip-path="url(#p1ee2a8506e)" d="M 311.211518 142.657324 
" style="fill:none;stroke:#ffd700;stroke-linecap:square;stroke-width:1.5;"/>
    <g clip-path="url(#p1ee2a8506e)">
     <use style="fill:#ffd700;stroke:#ffd700;" x="311.211518" xlink:href="#mf0232fb59e" y="142.657324"/>
    </g>
   </g>
   <g id="line2d_108">
    <path clip-path="url(#p1ee2a8506e)" d="M 370.758462 138.969464 
" style="fill:none;stroke:#ffd700;stroke-linecap:square;stroke-width:1.5;"/>
    <g clip-path="url(#p1ee2a8506e)">
     <use style="fill:#ffd700;stroke:#ffd700;" x="370.758462" xlink:href="#mf0232fb59e" y="138.969464"/>
    </g>
   </g>
   <g id="line2d_109">
    <path clip-path="url(#p1ee2a8506e)" d="M 370.603065 136.47565 
" style="fill:none;stroke:#ffd700;stroke-linecap:square;stroke-width:1.5;"/>
    <g clip-path="url(#p1ee2a8506e)">
     <use style="fill:#ffd700;stroke:#ffd700;" x="370.603065" xlink:href="#mf0232fb59e" y="136.47565"/>
    </g>
   </g>
   <g id="line2d_110">
    <path clip-path="url(#p1ee2a8506e)" d="M 370.702902 141.467497 
" style="fill:none;stroke:#ffd700;stroke-linecap:square;stroke-width:1.5;"/>
    <g clip-path="url(#p1ee2a8506e)">
     <use style="fill:#ffd700;stroke:#ffd700;" x="370.702902" xlink:href="#mf0232fb59e" y="141.467497"/>
    </g>
   </g>
   <g id="line2d_111">
    <path clip-path="url(#p1ee2a8506e)" d="M 430.249846 137.779636 
" style="fill:none;stroke:#ffd700;stroke-linecap:square;stroke-width:1.5;"/>
    <g clip-path="url(#p1ee2a8506e)">
     <use style="fill:#ffd700;stroke:#ffd700;" x="430.249846" xlink:href="#mf0232fb59e" y="137.779636"/>
    </g>
   </g>
   <g id="line2d_112">
    <path clip-path="url(#p1ee2a8506e)" d="M 430.09445 135.285822 
" style="fill:none;stroke:#ffd700;stroke-linecap:square;stroke-width:1.5;"/>
    <g clip-path="url(#p1ee2a8506e)">
     <use style="fill:#ffd700;stroke:#ffd700;" x="430.09445" xlink:href="#mf0232fb59e" y="135.285822"/>
    </g>
   </g>
   <g id="line2d_113">
    <path clip-path="url(#p1ee2a8506e)" d="M 430.194287 140.277669 
" style="fill:none;stroke:#ffd700;stroke-linecap:square;stroke-width:1.5;"/>
    <g clip-path="url(#p1ee2a8506e)">
     <use style="fill:#ffd700;stroke:#ffd700;" x="430.194287" xlink:href="#mf0232fb59e" y="140.277669"/>
    </g>
   </g>
   <g id="line2d_114">
    <path clip-path="url(#p1ee2a8506e)" d="M 489.741231 136.589808 
" style="fill:none;stroke:#ffd700;stroke-linecap:square;stroke-width:1.5;"/>
    <g clip-path="url(#p1ee2a8506e)">
     <use style="fill:#ffd700;stroke:#ffd700;" x="489.741231" xlink:href="#mf0232fb59e" y="136.589808"/>
    </g>
   </g>
   <g id="line2d_115">
    <path clip-path="url(#p1ee2a8506e)" d="M 489.585835 134.095994 
" style="fill:none;stroke:#ffd700;stroke-linecap:square;stroke-width:1.5;"/>
    <g clip-path="url(#p1ee2a8506e)">
     <use style="fill:#ffd700;stroke:#ffd700;" x="489.585835" xlink:href="#mf0232fb59e" y="134.095994"/>
    </g>
   </g>
   <g id="line2d_116">
    <path clip-path="url(#p1ee2a8506e)" d="M 489.685672 139.087841 
" style="fill:none;stroke:#ffd700;stroke-linecap:square;stroke-width:1.5;"/>
    <g clip-path="url(#p1ee2a8506e)">
     <use style="fill:#ffd700;stroke:#ffd700;" x="489.685672" xlink:href="#mf0232fb59e" y="139.087841"/>
    </g>
   </g>
   <g id="line2d_117">
    <path clip-path="url(#p1ee2a8506e)" d="M 547.154555 154.021368 
" style="fill:none;stroke:#ffd700;stroke-linecap:square;stroke-width:1.5;"/>
    <g clip-path="url(#p1ee2a8506e)">
     <use style="fill:#ffd700;stroke:#ffd700;" x="547.154555" xlink:href="#mf0232fb59e" y="154.021368"/>
    </g>
   </g>
   <g id="line2d_118">
    <path clip-path="url(#p1ee2a8506e)" d="M 546.276448 156.417796 
" style="fill:none;stroke:#ffd700;stroke-linecap:square;stroke-width:1.5;"/>
    <g clip-path="url(#p1ee2a8506e)">
     <use style="fill:#ffd700;stroke:#ffd700;" x="546.276448" xlink:href="#mf0232fb59e" y="156.417796"/>
    </g>
   </g>
   <g id="line2d_119">
    <path clip-path="url(#p1ee2a8506e)" d="M 549.232615 135.399981 
" style="fill:none;stroke:#ffd700;stroke-linecap:square;stroke-width:1.5;"/>
    <g clip-path="url(#p1ee2a8506e)">
     <use style="fill:#ffd700;stroke:#ffd700;" x="549.232615" xlink:href="#mf0232fb59e" y="135.399981"/>
    </g>
   </g>
   <g id="line2d_120">
    <path clip-path="url(#p1ee2a8506e)" d="M 549.077219 132.906166 
" style="fill:none;stroke:#ffd700;stroke-linecap:square;stroke-width:1.5;"/>
    <g clip-path="url(#p1ee2a8506e)">
     <use style="fill:#ffd700;stroke:#ffd700;" x="549.077219" xlink:href="#mf0232fb59e" y="132.906166"/>
    </g>
   </g>
   <g id="line2d_121">
    <path clip-path="url(#p1ee2a8506e)" d="M 549.177056 137.898014 
" style="fill:none;stroke:#ffd700;stroke-linecap:square;stroke-width:1.5;"/>
    <g clip-path="url(#p1ee2a8506e)">
     <use style="fill:#ffd700;stroke:#ffd700;" x="549.177056" xlink:href="#mf0232fb59e" y="137.898014"/>
    </g>
   </g>
   <g id="line2d_122">
    <path clip-path="url(#p1ee2a8506e)" d="M 546.411567 116.87627 
" style="fill:none;stroke:#ffd700;stroke-linecap:square;stroke-width:1.5;"/>
    <g clip-path="url(#p1ee2a8506e)">
     <use style="fill:#ffd700;stroke:#ffd700;" x="546.411567" xlink:href="#mf0232fb59e" y="116.87627"/>
    </g>
   </g>
   <g id="line2d_123">
    <path clip-path="url(#p1ee2a8506e)" d="M 545.438331 114.516874 
" style="fill:none;stroke:#ffd700;stroke-linecap:square;stroke-width:1.5;"/>
    <g clip-path="url(#p1ee2a8506e)">
     <use style="fill:#ffd700;stroke:#ffd700;" x="545.438331" xlink:href="#mf0232fb59e" y="114.516874"/>
    </g>
   </g>
   <g id="line2d_124">
    <path clip-path="url(#p1ee2a8506e)" d="M 487.66317 155.211196 
" style="fill:none;stroke:#ffd700;stroke-linecap:square;stroke-width:1.5;"/>
    <g clip-path="url(#p1ee2a8506e)">
     <use style="fill:#ffd700;stroke:#ffd700;" x="487.66317" xlink:href="#mf0232fb59e" y="155.211196"/>
    </g>
   </g>
   <g id="line2d_125">
    <path clip-path="url(#p1ee2a8506e)" d="M 486.785064 157.607624 
" style="fill:none;stroke:#ffd700;stroke-linecap:square;stroke-width:1.5;"/>
    <g clip-path="url(#p1ee2a8506e)">
     <use style="fill:#ffd700;stroke:#ffd700;" x="486.785064" xlink:href="#mf0232fb59e" y="157.607624"/>
    </g>
   </g>
   <g id="line2d_126">
    <path clip-path="url(#p1ee2a8506e)" d="M 543.918272 174.565481 
" style="fill:none;stroke:#ffd700;stroke-linecap:square;stroke-width:1.5;"/>
    <g clip-path="url(#p1ee2a8506e)">
     <use style="fill:#ffd700;stroke:#ffd700;" x="543.918272" xlink:href="#mf0232fb59e" y="174.565481"/>
    </g>
   </g>
   <g id="line2d_127">
    <path clip-path="url(#p1ee2a8506e)" d="M 544.630529 172.171018 
" style="fill:none;stroke:#ffd700;stroke-linecap:square;stroke-width:1.5;"/>
    <g clip-path="url(#p1ee2a8506e)">
     <use style="fill:#ffd700;stroke:#ffd700;" x="544.630529" xlink:href="#mf0232fb59e" y="172.171018"/>
    </g>
   </g>
   <g id="line2d_128">
    <path clip-path="url(#p1ee2a8506e)" d="M 543.006536 176.891313 
" style="fill:none;stroke:#ffd700;stroke-linecap:square;stroke-width:1.5;"/>
    <g clip-path="url(#p1ee2a8506e)">
     <use style="fill:#ffd700;stroke:#ffd700;" x="543.006536" xlink:href="#mf0232fb59e" y="176.891313"/>
    </g>
   </g>
   <g id="line2d_129">
    <path clip-path="url(#p1ee2a8506e)" d="M 535.523497 191.522928 
" style="fill:none;stroke:#ffd700;stroke-linecap:square;stroke-width:1.5;"/>
    <g clip-path="url(#p1ee2a8506e)">
     <use style="fill:#ffd700;stroke:#ffd700;" x="535.523497" xlink:href="#mf0232fb59e" y="191.522928"/>
    </g>
   </g>
   <g id="line2d_130">
    <path clip-path="url(#p1ee2a8506e)" d="M 533.869669 193.466839 
" style="fill:none;stroke:#ffd700;stroke-linecap:square;stroke-width:1.5;"/>
    <g clip-path="url(#p1ee2a8506e)">
     <use style="fill:#ffd700;stroke:#ffd700;" x="533.869669" xlink:href="#mf0232fb59e" y="193.466839"/>
    </g>
   </g>
   <g id="line2d_131">
    <path clip-path="url(#p1ee2a8506e)" d="M 581.592014 229.164881 
" style="fill:none;stroke:#ffd700;stroke-linecap:square;stroke-width:1.5;"/>
    <g clip-path="url(#p1ee2a8506e)">
     <use style="fill:#ffd700;stroke:#ffd700;" x="581.592014" xlink:href="#mf0232fb59e" y="229.164881"/>
    </g>
   </g>
   <g id="line2d_132">
    <path clip-path="url(#p1ee2a8506e)" d="M 583.089579 227.165367 
" style="fill:none;stroke:#ffd700;stroke-linecap:square;stroke-width:1.5;"/>
    <g clip-path="url(#p1ee2a8506e)">
     <use style="fill:#ffd700;stroke:#ffd700;" x="583.089579" xlink:href="#mf0232fb59e" y="227.165367"/>
    </g>
   </g>
   <g id="line2d_133">
    <path clip-path="url(#p1ee2a8506e)" d="M 579.931091 231.030918 
" style="fill:none;stroke:#ffd700;stroke-linecap:square;stroke-width:1.5;"/>
    <g clip-path="url(#p1ee2a8506e)">
     <use style="fill:#ffd700;stroke:#ffd700;" x="579.931091" xlink:href="#mf0232fb59e" y="231.030918"/>
    </g>
   </g>
   <g id="line2d_134">
    <path clip-path="url(#p1ee2a8506e)" d="M 567.843156 242.164734 
" style="fill:none;stroke:#ffd700;stroke-linecap:square;stroke-width:1.5;"/>
    <g clip-path="url(#p1ee2a8506e)">
     <use style="fill:#ffd700;stroke:#ffd700;" x="567.843156" xlink:href="#mf0232fb59e" y="242.164734"/>
    </g>
   </g>
   <g id="line2d_135">
    <path clip-path="url(#p1ee2a8506e)" d="M 565.618372 243.415445 
" style="fill:none;stroke:#ffd700;stroke-linecap:square;stroke-width:1.5;"/>
    <g clip-path="url(#p1ee2a8506e)">
     <use style="fill:#ffd700;stroke:#ffd700;" x="565.618372" xlink:href="#mf0232fb59e" y="243.415445"/>
    </g>
   </g>
   <g id="line2d_136">
    <path clip-path="url(#p1ee2a8506e)" d="M 637.525948 250.879593 
" style="fill:none;stroke:#ffd700;stroke-linecap:square;stroke-width:1.5;"/>
    <g clip-path="url(#p1ee2a8506e)">
     <use style="fill:#ffd700;stroke:#ffd700;" x="637.525948" xlink:href="#mf0232fb59e" y="250.879593"/>
    </g>
   </g>
   <g id="line2d_137">
    <path clip-path="url(#p1ee2a8506e)" d="M 638.313866 248.452017 
" style="fill:none;stroke:#ffd700;stroke-linecap:square;stroke-width:1.5;"/>
    <g clip-path="url(#p1ee2a8506e)">
     <use style="fill:#ffd700;stroke:#ffd700;" x="638.313866" xlink:href="#mf0232fb59e" y="248.452017"/>
    </g>
   </g>
   <g id="line2d_138">
    <path clip-path="url(#p1ee2a8506e)" d="M 627.660531 266.806834 
" style="fill:none;stroke:#ffd700;stroke-linecap:square;stroke-width:1.5;"/>
    <g clip-path="url(#p1ee2a8506e)">
     <use style="fill:#ffd700;stroke:#ffd700;" x="627.660531" xlink:href="#mf0232fb59e" y="266.806834"/>
    </g>
   </g>
   <g id="line2d_139">
    <path clip-path="url(#p1ee2a8506e)" d="M 629.158096 264.80732 
" style="fill:none;stroke:#ffd700;stroke-linecap:square;stroke-width:1.5;"/>
    <g clip-path="url(#p1ee2a8506e)">
     <use style="fill:#ffd700;stroke:#ffd700;" x="629.158096" xlink:href="#mf0232fb59e" y="264.80732"/>
    </g>
   </g>
   <g id="line2d_140">
    <path clip-path="url(#p1ee2a8506e)" d="M 625.999607 268.672871 
" style="fill:none;stroke:#ffd700;stroke-linecap:square;stroke-width:1.5;"/>
    <g clip-path="url(#p1ee2a8506e)">
     <use style="fill:#ffd700;stroke:#ffd700;" x="625.999607" xlink:href="#mf0232fb59e" y="268.672871"/>
    </g>
   </g>
   <g id="line2d_141">
    <path clip-path="url(#p1ee2a8506e)" d="M 697.594459 251.842313 
" style="fill:none;stroke:#ffd700;stroke-linecap:square;stroke-width:1.5;"/>
    <g clip-path="url(#p1ee2a8506e)">
     <use style="fill:#ffd700;stroke:#ffd700;" x="697.594459" xlink:href="#mf0232fb59e" y="251.842313"/>
    </g>
   </g>
   <g id="line2d_142">
    <path clip-path="url(#p1ee2a8506e)" d="M 697.492728 249.292099 
" style="fill:none;stroke:#ffd700;stroke-linecap:square;stroke-width:1.5;"/>
    <g clip-path="url(#p1ee2a8506e)">
     <use style="fill:#ffd700;stroke:#ffd700;" x="697.492728" xlink:href="#mf0232fb59e" y="249.292099"/>
    </g>
   </g>
   <g id="line2d_143">
    <path clip-path="url(#p1ee2a8506e)" d="M 754.277781 231.9387 
" style="fill:none;stroke:#ffd700;stroke-linecap:square;stroke-width:1.5;"/>
    <g clip-path="url(#p1ee2a8506e)">
     <use style="fill:#ffd700;stroke:#ffd700;" x="754.277781" xlink:href="#mf0232fb59e" y="231.9387"/>
    </g>
   </g>
   <g id="line2d_144">
    <path clip-path="url(#p1ee2a8506e)" d="M 753.298996 229.5816 
" style="fill:none;stroke:#ffd700;stroke-linecap:square;stroke-width:1.5;"/>
    <g clip-path="url(#p1ee2a8506e)">
     <use style="fill:#ffd700;stroke:#ffd700;" x="753.298996" xlink:href="#mf0232fb59e" y="229.5816"/>
    </g>
   </g>
   <g id="line2d_145">
    <path clip-path="url(#p1ee2a8506e)" d="M 800.55773 193.633098 
" style="fill:none;stroke:#ffd700;stroke-linecap:square;stroke-width:1.5;"/>
    <g clip-path="url(#p1ee2a8506e)">
     <use style="fill:#ffd700;stroke:#ffd700;" x="800.55773" xlink:href="#mf0232fb59e" y="193.633098"/>
    </g>
   </g>
   <g id="line2d_146">
    <path clip-path="url(#p1ee2a8506e)" d="M 798.823078 191.760954 
" style="fill:none;stroke:#ffd700;stroke-linecap:square;stroke-width:1.5;"/>
    <g clip-path="url(#p1ee2a8506e)">
     <use style="fill:#ffd700;stroke:#ffd700;" x="798.823078" xlink:href="#mf0232fb59e" y="191.760954"/>
    </g>
   </g>
   <g id="line2d_147">
    <path clip-path="url(#p1ee2a8506e)" d="M 614.01908 279.648731 
" style="fill:none;stroke:#ffd700;stroke-linecap:square;stroke-width:1.5;"/>
    <g clip-path="url(#p1ee2a8506e)">
     <use style="fill:#ffd700;stroke:#ffd700;" x="614.01908" xlink:href="#mf0232fb59e" y="279.648731"/>
    </g>
   </g>
   <g id="line2d_148">
    <path clip-path="url(#p1ee2a8506e)" d="M 611.797246 280.904674 
" style="fill:none;stroke:#ffd700;stroke-linecap:square;stroke-width:1.5;"/>
    <g clip-path="url(#p1ee2a8506e)">
     <use style="fill:#ffd700;stroke:#ffd700;" x="611.797246" xlink:href="#mf0232fb59e" y="280.904674"/>
    </g>
   </g>
   <g id="line2d_149">
    <path clip-path="url(#p1ee2a8506e)" d="M 809.662965 210.219899 
" style="fill:none;stroke:#ffd700;stroke-linecap:square;stroke-width:1.5;"/>
    <g clip-path="url(#p1ee2a8506e)">
     <use style="fill:#ffd700;stroke:#ffd700;" x="809.662965" xlink:href="#mf0232fb59e" y="210.219899"/>
    </g>
   </g>
   <g id="line2d_150">
    <path clip-path="url(#p1ee2a8506e)" d="M 808.653569 207.934756 
" style="fill:none;stroke:#ffd700;stroke-linecap:square;stroke-width:1.5;"/>
    <g clip-path="url(#p1ee2a8506e)">
     <use style="fill:#ffd700;stroke:#ffd700;" x="808.653569" xlink:href="#mf0232fb59e" y="207.934756"/>
    </g>
   </g>
   <g id="line2d_151">
    <path clip-path="url(#p1ee2a8506e)" d="M 810.475966 212.582057 
" style="fill:none;stroke:#ffd700;stroke-linecap:square;stroke-width:1.5;"/>
    <g clip-path="url(#p1ee2a8506e)">
     <use style="fill:#ffd700;stroke:#ffd700;" x="810.475966" xlink:href="#mf0232fb59e" y="212.582057"/>
    </g>
   </g>
   <g id="line2d_152">
    <path clip-path="url(#p1ee2a8506e)" d="M 757.085844 250.652486 
" style="fill:none;stroke:#ffd700;stroke-linecap:square;stroke-width:1.5;"/>
    <g clip-path="url(#p1ee2a8506e)">
     <use style="fill:#ffd700;stroke:#ffd700;" x="757.085844" xlink:href="#mf0232fb59e" y="250.652486"/>
    </g>
   </g>
   <g id="line2d_153">
    <path clip-path="url(#p1ee2a8506e)" d="M 756.930448 248.158672 
" style="fill:none;stroke:#ffd700;stroke-linecap:square;stroke-width:1.5;"/>
    <g clip-path="url(#p1ee2a8506e)">
     <use style="fill:#ffd700;stroke:#ffd700;" x="756.930448" xlink:href="#mf0232fb59e" y="248.158672"/>
    </g>
   </g>
   <g id="line2d_154">
    <path clip-path="url(#p1ee2a8506e)" d="M 757.030285 253.150519 
" style="fill:none;stroke:#ffd700;stroke-linecap:square;stroke-width:1.5;"/>
    <g clip-path="url(#p1ee2a8506e)">
     <use style="fill:#ffd700;stroke:#ffd700;" x="757.030285" xlink:href="#mf0232fb59e" y="253.150519"/>
    </g>
   </g>
   <g id="line2d_155">
    <path clip-path="url(#p1ee2a8506e)" d="M 693.73535 270.366205 
" style="fill:none;stroke:#ffd700;stroke-linecap:square;stroke-width:1.5;"/>
    <g clip-path="url(#p1ee2a8506e)">
     <use style="fill:#ffd700;stroke:#ffd700;" x="693.73535" xlink:href="#mf0232fb59e" y="270.366205"/>
    </g>
   </g>
   <g id="line2d_156">
    <path clip-path="url(#p1ee2a8506e)" d="M 694.45324 267.973425 
" style="fill:none;stroke:#ffd700;stroke-linecap:square;stroke-width:1.5;"/>
    <g clip-path="url(#p1ee2a8506e)">
     <use style="fill:#ffd700;stroke:#ffd700;" x="694.45324" xlink:href="#mf0232fb59e" y="267.973425"/>
    </g>
   </g>
   <g id="line2d_157">
    <path clip-path="url(#p1ee2a8506e)" d="M 692.818143 272.689885 
" style="fill:none;stroke:#ffd700;stroke-linecap:square;stroke-width:1.5;"/>
    <g clip-path="url(#p1ee2a8506e)">
     <use style="fill:#ffd700;stroke:#ffd700;" x="692.818143" xlink:href="#mf0232fb59e" y="272.689885"/>
    </g>
   </g>
   <g id="line2d_158">
    <path clip-path="url(#p1ee2a8506e)" d="M 830.704203 141.668274 
" style="fill:none;stroke:#ffd700;stroke-linecap:square;stroke-width:1.5;"/>
    <g clip-path="url(#p1ee2a8506e)">
     <use style="fill:#ffd700;stroke:#ffd700;" x="830.704203" xlink:href="#mf0232fb59e" y="141.668274"/>
    </g>
   </g>
   <g id="line2d_159">
    <path clip-path="url(#p1ee2a8506e)" d="M 828.428459 140.512883 
" style="fill:none;stroke:#ffd700;stroke-linecap:square;stroke-width:1.5;"/>
    <g clip-path="url(#p1ee2a8506e)">
     <use style="fill:#ffd700;stroke:#ffd700;" x="828.428459" xlink:href="#mf0232fb59e" y="140.512883"/>
    </g>
   </g>
   <g id="line2d_160">
    <path clip-path="url(#p1ee2a8506e)" d="M 844.991153 154.074334 
" style="fill:none;stroke:#ffd700;stroke-linecap:square;stroke-width:1.5;"/>
    <g clip-path="url(#p1ee2a8506e)">
     <use style="fill:#ffd700;stroke:#ffd700;" x="844.991153" xlink:href="#mf0232fb59e" y="154.074334"/>
    </g>
   </g>
   <g id="line2d_161">
    <path clip-path="url(#p1ee2a8506e)" d="M 843.25271 152.280295 
" style="fill:none;stroke:#ffd700;stroke-linecap:square;stroke-width:1.5;"/>
    <g clip-path="url(#p1ee2a8506e)">
     <use style="fill:#ffd700;stroke:#ffd700;" x="843.25271" xlink:href="#mf0232fb59e" y="152.280295"/>
    </g>
   </g>
   <g id="line2d_162">
    <path clip-path="url(#p1ee2a8506e)" d="M 846.572036 156.008648 
" style="fill:none;stroke:#ffd700;stroke-linecap:square;stroke-width:1.5;"/>
    <g clip-path="url(#p1ee2a8506e)">
     <use style="fill:#ffd700;stroke:#ffd700;" x="846.572036" xlink:href="#mf0232fb59e" y="156.008648"/>
    </g>
   </g>
   <g id="line2d_163">
    <path clip-path="url(#p1ee2a8506e)" d="M 486.920183 118.066098 
" style="fill:none;stroke:#ffd700;stroke-linecap:square;stroke-width:1.5;"/>
    <g clip-path="url(#p1ee2a8506e)">
     <use style="fill:#ffd700;stroke:#ffd700;" x="486.920183" xlink:href="#mf0232fb59e" y="118.066098"/>
    </g>
   </g>
   <g id="line2d_164">
    <path clip-path="url(#p1ee2a8506e)" d="M 485.946947 115.706701 
" style="fill:none;stroke:#ffd700;stroke-linecap:square;stroke-width:1.5;"/>
    <g clip-path="url(#p1ee2a8506e)">
     <use style="fill:#ffd700;stroke:#ffd700;" x="485.946947" xlink:href="#mf0232fb59e" y="115.706701"/>
    </g>
   </g>
   <g id="line2d_165">
    <path clip-path="url(#p1ee2a8506e)" d="M 542.356322 96.47769 
" style="fill:none;stroke:#ffd700;stroke-linecap:square;stroke-width:1.5;"/>
    <g clip-path="url(#p1ee2a8506e)">
     <use style="fill:#ffd700;stroke:#ffd700;" x="542.356322" xlink:href="#mf0232fb59e" y="96.47769"/>
    </g>
   </g>
   <g id="line2d_166">
    <path clip-path="url(#p1ee2a8506e)" d="M 541.352306 94.190178 
" style="fill:none;stroke:#ffd700;stroke-linecap:square;stroke-width:1.5;"/>
    <g clip-path="url(#p1ee2a8506e)">
     <use style="fill:#ffd700;stroke:#ffd700;" x="541.352306" xlink:href="#mf0232fb59e" y="94.190178"/>
    </g>
   </g>
   <g id="line2d_167">
    <path clip-path="url(#p1ee2a8506e)" d="M 543.163762 98.841755 
" style="fill:none;stroke:#ffd700;stroke-linecap:square;stroke-width:1.5;"/>
    <g clip-path="url(#p1ee2a8506e)">
     <use style="fill:#ffd700;stroke:#ffd700;" x="543.163762" xlink:href="#mf0232fb59e" y="98.841755"/>
    </g>
   </g>
   <g id="line2d_168">
    <path clip-path="url(#p1ee2a8506e)" d="M 602.261361 93.083579 
" style="fill:none;stroke:#ffd700;stroke-linecap:square;stroke-width:1.5;"/>
    <g clip-path="url(#p1ee2a8506e)">
     <use style="fill:#ffd700;stroke:#ffd700;" x="602.261361" xlink:href="#mf0232fb59e" y="93.083579"/>
    </g>
   </g>
   <g id="line2d_169">
    <path clip-path="url(#p1ee2a8506e)" d="M 602.261692 95.635821 
" style="fill:none;stroke:#ffd700;stroke-linecap:square;stroke-width:1.5;"/>
    <g clip-path="url(#p1ee2a8506e)">
     <use style="fill:#ffd700;stroke:#ffd700;" x="602.261692" xlink:href="#mf0232fb59e" y="95.635821"/>
    </g>
   </g>
   <g id="line2d_170">
    <path clip-path="url(#p1ee2a8506e)" d="M 659.695275 110.704543 
" style="fill:none;stroke:#ffd700;stroke-linecap:square;stroke-width:1.5;"/>
    <g clip-path="url(#p1ee2a8506e)">
     <use style="fill:#ffd700;stroke:#ffd700;" x="659.695275" xlink:href="#mf0232fb59e" y="110.704543"/>
    </g>
   </g>
   <g id="line2d_171">
    <path clip-path="url(#p1ee2a8506e)" d="M 658.811531 113.098898 
" style="fill:none;stroke:#ffd700;stroke-linecap:square;stroke-width:1.5;"/>
    <g clip-path="url(#p1ee2a8506e)">
     <use style="fill:#ffd700;stroke:#ffd700;" x="658.811531" xlink:href="#mf0232fb59e" y="113.098898"/>
    </g>
   </g>
   <g id="line2d_172">
    <path clip-path="url(#p1ee2a8506e)" d="M 715.904676 130.191154 
" style="fill:none;stroke:#ffd700;stroke-linecap:square;stroke-width:1.5;"/>
    <g clip-path="url(#p1ee2a8506e)">
     <use style="fill:#ffd700;stroke:#ffd700;" x="715.904676" xlink:href="#mf0232fb59e" y="130.191154"/>
    </g>
   </g>
   <g id="line2d_173">
    <path clip-path="url(#p1ee2a8506e)" d="M 716.622566 127.798375 
" style="fill:none;stroke:#ffd700;stroke-linecap:square;stroke-width:1.5;"/>
    <g clip-path="url(#p1ee2a8506e)">
     <use style="fill:#ffd700;stroke:#ffd700;" x="716.622566" xlink:href="#mf0232fb59e" y="127.798375"/>
    </g>
   </g>
   <g id="line2d_174">
    <path clip-path="url(#p1ee2a8506e)" d="M 714.987469 132.514835 
" style="fill:none;stroke:#ffd700;stroke-linecap:square;stroke-width:1.5;"/>
    <g clip-path="url(#p1ee2a8506e)">
     <use style="fill:#ffd700;stroke:#ffd700;" x="714.987469" xlink:href="#mf0232fb59e" y="132.514835"/>
    </g>
   </g>
   <g id="line2d_175">
    <path clip-path="url(#p1ee2a8506e)" d="M 772.114077 149.677766 
" style="fill:none;stroke:#008000;stroke-linecap:square;stroke-width:1.5;"/>
    <defs>
     <path d="M 0 4 
C 1.060812 4 2.078319 3.578535 2.828427 2.828427 
C 3.578535 2.078319 4 1.060812 4 0 
C 4 -1.060812 3.578535 -2.078319 2.828427 -2.828427 
C 2.078319 -3.578535 1.060812 -4 0 -4 
C -1.060812 -4 -2.078319 -3.578535 -2.828427 -2.828427 
C -3.578535 -2.078319 -4 -1.060812 -4 0 
C -4 1.060812 -3.578535 2.078319 -2.828427 2.828427 
C -2.078319 3.578535 -1.060812 4 0 4 
z
" id="m82e40ed290" style="stroke:#008000;"/>
    </defs>
    <g clip-path="url(#p1ee2a8506e)">
     <use style="fill:#008000;stroke:#008000;" x="772.114077" xlink:href="#m82e40ed290" y="149.677766"/>
    </g>
   </g>
   <g id="line2d_176">
    <path clip-path="url(#p1ee2a8506e)" d="M 73.301538 144.918602 
" style="fill:none;stroke:#008000;stroke-linecap:square;stroke-width:1.5;"/>
    <g clip-path="url(#p1ee2a8506e)">
     <use style="fill:#008000;stroke:#008000;" x="73.301538" xlink:href="#m82e40ed290" y="144.918602"/>
    </g>
   </g>
   <g id="line2d_177">
    <path clip-path="url(#p1ee2a8506e)" d="M 132.792923 143.728774 
" style="fill:none;stroke:#008000;stroke-linecap:square;stroke-width:1.5;"/>
    <g clip-path="url(#p1ee2a8506e)">
     <use style="fill:#008000;stroke:#008000;" x="132.792923" xlink:href="#m82e40ed290" y="143.728774"/>
    </g>
   </g>
   <g id="line2d_178">
    <path clip-path="url(#p1ee2a8506e)" d="M 192.284308 142.538947 
" style="fill:none;stroke:#008000;stroke-linecap:square;stroke-width:1.5;"/>
    <g clip-path="url(#p1ee2a8506e)">
     <use style="fill:#008000;stroke:#008000;" x="192.284308" xlink:href="#m82e40ed290" y="142.538947"/>
    </g>
   </g>
   <g id="line2d_179">
    <path clip-path="url(#p1ee2a8506e)" d="M 251.775692 141.349119 
" style="fill:none;stroke:#008000;stroke-linecap:square;stroke-width:1.5;"/>
    <g clip-path="url(#p1ee2a8506e)">
     <use style="fill:#008000;stroke:#008000;" x="251.775692" xlink:href="#m82e40ed290" y="141.349119"/>
    </g>
   </g>
   <g id="line2d_180">
    <path clip-path="url(#p1ee2a8506e)" d="M 311.267077 140.159291 
" style="fill:none;stroke:#008000;stroke-linecap:square;stroke-width:1.5;"/>
    <g clip-path="url(#p1ee2a8506e)">
     <use style="fill:#008000;stroke:#008000;" x="311.267077" xlink:href="#m82e40ed290" y="140.159291"/>
    </g>
   </g>
   <g id="line2d_181">
    <path clip-path="url(#p1ee2a8506e)" d="M 370.758462 138.969464 
" style="fill:none;stroke:#008000;stroke-linecap:square;stroke-width:1.5;"/>
    <g clip-path="url(#p1ee2a8506e)">
     <use style="fill:#008000;stroke:#008000;" x="370.758462" xlink:href="#m82e40ed290" y="138.969464"/>
    </g>
   </g>
   <g id="line2d_182">
    <path clip-path="url(#p1ee2a8506e)" d="M 430.09445 135.285822 
" style="fill:none;stroke:#008000;stroke-linecap:square;stroke-width:1.5;"/>
    <g clip-path="url(#p1ee2a8506e)">
     <use style="fill:#008000;stroke:#008000;" x="430.09445" xlink:href="#m82e40ed290" y="135.285822"/>
    </g>
   </g>
   <g id="line2d_183">
    <path clip-path="url(#p1ee2a8506e)" d="M 486.920183 118.066098 
" style="fill:none;stroke:#008000;stroke-linecap:square;stroke-width:1.5;"/>
    <g clip-path="url(#p1ee2a8506e)">
     <use style="fill:#008000;stroke:#008000;" x="486.920183" xlink:href="#m82e40ed290" y="118.066098"/>
    </g>
   </g>
   <g id="line2d_184">
    <path clip-path="url(#p1ee2a8506e)" d="M 543.163762 98.841755 
" style="fill:none;stroke:#008000;stroke-linecap:square;stroke-width:1.5;"/>
    <g clip-path="url(#p1ee2a8506e)">
     <use style="fill:#008000;stroke:#008000;" x="543.163762" xlink:href="#m82e40ed290" y="98.841755"/>
    </g>
   </g>
   <g id="line2d_185">
    <path clip-path="url(#p1ee2a8506e)" d="M 602.261692 95.635821 
" style="fill:none;stroke:#008000;stroke-linecap:square;stroke-width:1.5;"/>
    <g clip-path="url(#p1ee2a8506e)">
     <use style="fill:#008000;stroke:#008000;" x="602.261692" xlink:href="#m82e40ed290" y="95.635821"/>
    </g>
   </g>
   <g id="line2d_186">
    <path clip-path="url(#p1ee2a8506e)" d="M 659.695275 110.704543 
" style="fill:none;stroke:#008000;stroke-linecap:square;stroke-width:1.5;"/>
    <g clip-path="url(#p1ee2a8506e)">
     <use style="fill:#008000;stroke:#008000;" x="659.695275" xlink:href="#m82e40ed290" y="110.704543"/>
    </g>
   </g>
   <g id="line2d_187">
    <path clip-path="url(#p1ee2a8506e)" d="M 715.904676 130.191154 
" style="fill:none;stroke:#008000;stroke-linecap:square;stroke-width:1.5;"/>
    <g clip-path="url(#p1ee2a8506e)">
     <use style="fill:#008000;stroke:#008000;" x="715.904676" xlink:href="#m82e40ed290" y="130.191154"/>
    </g>
   </g>
   <g id="line2d_188">
    <path clip-path="url(#p1ee2a8506e)" d="M 772.114077 149.677766 
" style="fill:none;stroke:#008000;stroke-linecap:square;stroke-width:1.5;"/>
    <g clip-path="url(#p1ee2a8506e)">
     <use style="fill:#008000;stroke:#008000;" x="772.114077" xlink:href="#m82e40ed290" y="149.677766"/>
    </g>
   </g>
  </g>
 </g>
 <defs>
  <clipPath id="p1ee2a8506e">
   <rect height="277.2" width="859.32" x="7.2" y="7.2"/>
  </clipPath>
 </defs>
</svg>
