<?xml version="1.0" encoding="utf-8" standalone="no"?>
<!DOCTYPE svg PUBLIC "-//W3C//DTD SVG 1.1//EN"
  "http://www.w3.org/Graphics/SVG/1.1/DTD/svg11.dtd">
<!-- Created with matplotlib (https://matplotlib.org/) -->
<svg height="280.512pt" version="1.1" viewBox="0 0 371.52 280.512" width="371.52pt" xmlns="http://www.w3.org/2000/svg" xmlns:xlink="http://www.w3.org/1999/xlink">
 <metadata>
  <rdf:RDF xmlns:cc="http://creativecommons.org/ns#" xmlns:dc="http://purl.org/dc/elements/1.1/" xmlns:rdf="http://www.w3.org/1999/02/22-rdf-syntax-ns#">
   <cc:Work>
    <dc:type rdf:resource="http://purl.org/dc/dcmitype/StillImage"/>
    <dc:date>2022-04-18T16:28:12.017011</dc:date>
    <dc:format>image/svg+xml</dc:format>
    <dc:creator>
     <cc:Agent>
      <dc:title>Matplotlib v3.3.4, https://matplotlib.org/</dc:title>
     </cc:Agent>
    </dc:creator>
   </cc:Work>
  </rdf:RDF>
 </metadata>
 <defs>
  <style type="text/css">*{stroke-linecap:butt;stroke-linejoin:round;}</style>
 </defs>
 <g id="figure_1">
  <g id="patch_1">
   <path d="M 0 280.512 
L 371.52 280.512 
L 371.52 0 
L 0 0 
z
" style="fill:#ffffff;"/>
  </g>
  <g id="axes_1">
   <g id="line2d_1">
    <path clip-path="url(#pec0714dce9)" d="M 23.432727 166.330863 
L 35.371934 188.872007 
L 47.755261 208.519987 
L 60.520762 225.176515 
L 73.604579 238.758268 
L 86.941259 249.197304 
" style="fill:none;stroke:#008000;stroke-linecap:square;stroke-width:3;"/>
   </g>
   <g id="line2d_2">
    <path clip-path="url(#pec0714dce9)" d="M 86.941259 249.197304 
L 100.464088 256.441403 
L 114.105419 260.454326 
L 127.797011 261.216 
L 141.470374 258.722613 
L 155.057107 252.98664 
" style="fill:none;stroke:#008000;stroke-linecap:square;stroke-width:3;"/>
   </g>
   <g id="line2d_3">
    <path clip-path="url(#pec0714dce9)" d="M 155.057107 252.98664 
L 168.489244 244.036773 
L 181.726052 232.238258 
L 194.77484 218.265575 
L 207.670476 202.765099 
L 220.466831 186.358844 
" style="fill:none;stroke:#008000;stroke-linecap:square;stroke-width:3;"/>
   </g>
   <g id="line2d_4">
    <path clip-path="url(#pec0714dce9)" d="M 220.466831 186.358844 
L 233.228875 169.652559 
L 245.990919 152.946275 
L 258.752964 136.239991 
L 271.515008 119.533706 
L 284.277052 102.827422 
" style="fill:none;stroke:#008000;stroke-linecap:square;stroke-width:3;"/>
   </g>
   <g id="line2d_5">
    <path clip-path="url(#pec0714dce9)" d="M 284.277052 102.827422 
L 297.039096 86.121138 
L 309.80114 69.414853 
L 322.563184 52.708569 
L 335.325229 36.002284 
L 348.087273 19.296 
" style="fill:none;stroke:#008000;stroke-linecap:square;stroke-width:3;"/>
   </g>
   <g id="line2d_6">
    <path clip-path="url(#pec0714dce9)" d="M 86.941259 249.197304 
" style="fill:none;stroke:#008000;stroke-linecap:square;stroke-width:1.5;"/>
    <defs>
     <path d="M 0 4 
C 1.060812 4 2.078319 3.578535 2.828427 2.828427 
C 3.578535 2.078319 4 1.060812 4 0 
C 4 -1.060812 3.578535 -2.078319 2.828427 -2.828427 
C 2.078319 -3.578535 1.060812 -4 0 -4 
C -1.060812 -4 -2.078319 -3.578535 -2.828427 -2.828427 
C -3.578535 -2.078319 -4 -1.060812 -4 0 
C -4 1.060812 -3.578535 2.078319 -2.828427 2.828427 
C -2.078319 3.578535 -1.060812 4 0 4 
z
" id="m474ebe4f2f" style="stroke:#008000;"/>
    </defs>
    <g clip-path="url(#pec0714dce9)">
     <use style="fill:#008000;stroke:#008000;" x="86.941259" xlink:href="#m474ebe4f2f" y="249.197304"/>
    </g>
   </g>
   <g id="line2d_7">
    <path clip-path="url(#pec0714dce9)" d="M 155.057107 252.98664 
" style="fill:none;stroke:#008000;stroke-linecap:square;stroke-width:1.5;"/>
    <g clip-path="url(#pec0714dce9)">
     <use style="fill:#008000;stroke:#008000;" x="155.057107" xlink:href="#m474ebe4f2f" y="252.98664"/>
    </g>
   </g>
   <g id="line2d_8">
    <path clip-path="url(#pec0714dce9)" d="M 220.466831 186.358844 
" style="fill:none;stroke:#008000;stroke-linecap:square;stroke-width:1.5;"/>
    <g clip-path="url(#pec0714dce9)">
     <use style="fill:#008000;stroke:#008000;" x="220.466831" xlink:href="#m474ebe4f2f" y="186.358844"/>
    </g>
   </g>
   <g id="line2d_9">
    <path clip-path="url(#pec0714dce9)" d="M 284.277052 102.827422 
" style="fill:none;stroke:#008000;stroke-linecap:square;stroke-width:1.5;"/>
    <g clip-path="url(#pec0714dce9)">
     <use style="fill:#008000;stroke:#008000;" x="284.277052" xlink:href="#m474ebe4f2f" y="102.827422"/>
    </g>
   </g>
   <g id="line2d_10">
    <path clip-path="url(#pec0714dce9)" d="M 348.087273 19.296 
" style="fill:none;stroke:#008000;stroke-linecap:square;stroke-width:1.5;"/>
    <g clip-path="url(#pec0714dce9)">
     <use style="fill:#008000;stroke:#008000;" x="348.087273" xlink:href="#m474ebe4f2f" y="19.296"/>
    </g>
   </g>
  </g>
 </g>
 <defs>
  <clipPath id="pec0714dce9">
   <rect height="266.112" width="357.12" x="7.2" y="7.2"/>
  </clipPath>
 </defs>
</svg>
